<?xml version="1.0" standalone="no"?>
<!DOCTYPE svg PUBLIC "-//W3C//DTD SVG 1.1//EN" "http://www.w3.org/Graphics/SVG/1.1/DTD/svg11.dtd" >
<svg xmlns="http://www.w3.org/2000/svg" xmlns:xlink="http://www.w3.org/1999/xlink" version="1.1">
<metadata>
Created by FontForge 20170731 at Wed Jun 12 13:29:40 2013
 By Aleksey,,,
Copyright (c) ParaType, Inc., Henning Krause, FontShop AG 2007. All rights reserved.
</metadata>
<defs>
<font id="NewsGothicXBdBT-Reg" horiz-adv-x="500" >
  <font-face 
    font-family="News Gothic XBd BT"
    font-weight="800"
    font-stretch="normal"
    units-per-em="1000"
    panose-1="2 11 9 3 3 5 3 2 2 4"
    ascent="800"
    descent="-200"
    x-height="524"
    cap-height="730"
    bbox="-174 -369 1362 973"
    underline-thickness="50"
    underline-position="-200"
    unicode-range="U+000D-FB02"
  />
<missing-glyph horiz-adv-x="305" 
 />
    <glyph glyph-name=".notdef" horiz-adv-x="305" 
 />
    <glyph glyph-name=".null" 
 />
    <glyph glyph-name=".null" 
 />
    <glyph glyph-name="nonmarkingreturn" horiz-adv-x="333" 
 />
    <glyph glyph-name="CR" unicode="&#xd;" 
 />
    <glyph glyph-name="space" unicode=" " horiz-adv-x="304" 
 />
    <glyph glyph-name="exclam" unicode="!" horiz-adv-x="334" 
d="M66 730h196l-30 -466h-137zM79 172h170v-172h-170v172z" />
    <glyph glyph-name="quotedbl" unicode="&#x22;" horiz-adv-x="333" 
d="M137 701v-274h-108v274h108zM304 701v-274h-108v274h108z" />
    <glyph glyph-name="numbersign" unicode="#" horiz-adv-x="769" 
d="M453 714l-71 -199h121l71 199h113l-71 -199h135l-35 -104h-137l-41 -114h142l-37 -103h-141l-71 -198h-113l71 198h-121l-71 -198h-113l71 198h-137l36 103h137l41 114h-143l38 104h142l71 199h113zM466 411h-121l-41 -116h121z" />
    <glyph glyph-name="dollar" unicode="$" horiz-adv-x="609" 
d="M267 808h79v-80q162 -16 227 -147l-171 -60q-34 61 -101 61q-70 0 -70 -47q0 -24 32.5 -45.5t114.5 -52.5q103 -39 157 -91t54 -131q0 -103 -62 -158.5t-181 -60.5v-96h-79v98q-174 13 -248 147l167 78q20 -35 52 -57t68 -22q85 0 85 59q0 27 -29.5 45.5t-121.5 53.5
q-97 38 -150.5 91t-53.5 137q0 85 62 137.5t169 60.5v80z" />
    <glyph glyph-name="percent" unicode="%" horiz-adv-x="956" 
d="M615 737h150l-425 -749h-150zM24 546q0 80 56 136.5t136 56.5t136.5 -56.5t56.5 -136.5t-56.5 -136t-136.5 -56t-136 56t-56 136zM153 546q0 -26 18.5 -44.5t44.5 -18.5t45 18.5t19 44.5t-19 45t-45 19t-44.5 -19t-18.5 -45zM547 180q0 80 56 136.5t136 56.5t136.5 -56.5
t56.5 -136.5t-56.5 -136t-136.5 -56t-136 56t-56 136zM676 180q0 -26 18.5 -44.5t44.5 -18.5t45 18.5t19 44.5t-19 45t-45 19t-44.5 -19t-18.5 -45z" />
    <glyph glyph-name="ampersand" unicode="&#x26;" horiz-adv-x="676" 
d="M288 467q52 40 52 93q0 28 -12.5 44.5t-32.5 16.5q-22 0 -36 -14.5t-14 -40.5q0 -46 43 -99zM371 367q45 -56 100 -107q12 17 45 108l138 -42q-34 -97 -77 -154q38 -28 77 -28v-154q-57 0 -100.5 15.5t-89.5 54.5q-80 -72 -213 -72q-103 0 -162.5 50t-59.5 145
q0 98 119 189q-80 96 -80 181q0 86 63.5 135t162.5 49q95 0 148.5 -44.5t53.5 -124.5q0 -55 -29 -98t-96 -103zM241 281q-33 -24 -33 -72q0 -36 21.5 -59.5t59.5 -23.5q14 0 33.5 7t28.5 17q-39 39 -110 131z" />
    <glyph glyph-name="quotesingle" unicode="'" horiz-adv-x="176" 
d="M142 701v-274h-108v274h108z" />
    <glyph glyph-name="parenleft" unicode="(" horiz-adv-x="333" 
d="M199 321q0 -218 134 -412h-146q-133 177 -133 412q0 239 133 416h146q-134 -192 -134 -416z" />
    <glyph glyph-name="parenright" unicode=")" horiz-adv-x="333" 
d="M134 321q0 224 -134 416h146q133 -177 133 -416q0 -235 -133 -412h-146q134 194 134 412z" />
    <glyph glyph-name="asterisk" unicode="*" 
d="M179 730h141l-28 -147l128 70l46 -132l-147 -21l108 -98l-114 -86l-63 136l-62 -136l-114 86l107 98l-147 21l45 132l127 -70z" />
    <glyph glyph-name="plus" unicode="+" horiz-adv-x="833" 
d="M478 596v-237h231v-120h-231v-239h-124v239h-230v120h230v237h124z" />
    <glyph glyph-name="comma" unicode="," horiz-adv-x="304" 
d="M66 173h172v-173l-81 -150h-76l51 153h-66v170z" />
    <glyph glyph-name="hyphen" unicode="-" horiz-adv-x="322" 
d="M33 339h256v-141h-256v141z" />
    <glyph glyph-name="period" unicode="." horiz-adv-x="304" 
d="M66 173h172v-173h-172v173z" />
    <glyph glyph-name="slash" unicode="/" horiz-adv-x="304" 
d="M212 737h124l-269 -830h-124z" />
    <glyph glyph-name="zero" unicode="0" horiz-adv-x="609" 
d="M304 738q270 0 270 -375q0 -374 -270 -374q-268 0 -268 374q0 375 268 375zM304 590q-46 0 -71 -58t-25 -169q0 -110 25.5 -166.5t70.5 -56.5q95 0 95 223q0 227 -95 227z" />
    <glyph glyph-name="one" unicode="1" horiz-adv-x="609" 
d="M295 727h104v-588h108v-139h-394v139h112v406h-120v116q125 21 190 66z" />
    <glyph glyph-name="two" unicode="2" horiz-adv-x="609" 
d="M254 157h295v-157h-501v151q30 74 202 198q72 51 100 87.5t28 79.5q0 34 -20.5 52.5t-59.5 18.5q-33 0 -56 -23t-23 -55l-169 30q16 93 86.5 146t180.5 53q104 0 171.5 -61t67.5 -155q0 -70 -40.5 -131t-124.5 -122q-124 -92 -137 -112z" />
    <glyph glyph-name="three" unicode="3" horiz-adv-x="609" 
d="M417 389q59 -11 94 -58t35 -117q0 -107 -70 -166t-189 -59q-187 0 -260 143l138 80q30 -40 55 -56t62 -16q38 0 64 24t26 57q0 44 -32 67t-107 23h-35v137h32q57 0 89.5 20.5t32.5 51.5q0 29 -20 49t-52 20q-65 0 -107 -56l-124 98q31 47 93 77t139 30q108 0 175 -53
t67 -133q0 -60 -26 -98t-80 -65z" />
    <glyph glyph-name="four" unicode="4" horiz-adv-x="609" 
d="M314 727h195v-445h82v-147h-82v-135h-174v135h-323v149zM338 523l-165 -242h165v242z" />
    <glyph glyph-name="five" unicode="5" horiz-adv-x="609" 
d="M96 727h413v-156h-276l-7 -113q36 29 105 29q99 0 162 -66.5t63 -170.5q0 -125 -70.5 -193t-200.5 -68q-172 0 -250 134l150 71q33 -54 98 -54q43 0 69 32t26 84q0 43 -27 68.5t-73 25.5q-43 0 -76 -33l-136 31z" />
    <glyph glyph-name="six" unicode="6" horiz-adv-x="609" 
d="M561 672l-73 -129q-73 46 -140 46q-45 0 -81.5 -39.5t-46.5 -114.5q51 39 128 39q97 0 161 -65.5t64 -163.5q0 -127 -69.5 -192t-199.5 -65q-123 0 -195 88t-72 248q0 195 85 304.5t227 109.5q117 0 212 -66zM397 227q0 47 -25.5 74t-67.5 27q-37 0 -60.5 -17t-31.5 -36
q2 -138 96 -138q40 0 64.5 24t24.5 66z" />
    <glyph glyph-name="seven" unicode="7" horiz-adv-x="609" 
d="M41 727h524v-105l-274 -622h-193l259 565h-316v162z" />
    <glyph glyph-name="eight" unicode="8" horiz-adv-x="609" 
d="M443 388q132 -66 132 -194q0 -98 -70 -151.5t-201 -53.5q-127 0 -197.5 53.5t-70.5 149.5q0 62 33.5 107.5t109.5 82.5q-66 39 -90.5 77t-24.5 97q0 78 64.5 129.5t176.5 51.5q114 0 178 -50t64 -133q0 -56 -27 -100t-77 -66zM294 305q-79 -25 -79 -93q0 -35 22 -54.5
t64 -19.5q91 0 91 69q0 31 -24 53t-74 45zM320 458q31 13 45.5 29.5t14.5 43.5q0 32 -19 51t-54 19q-33 0 -50.5 -15t-17.5 -42q0 -54 81 -86z" />
    <glyph glyph-name="nine" unicode="9" horiz-adv-x="609" 
d="M48 54l73 129q73 -46 140 -46q45 0 81.5 39.5t46.5 114.5q-51 -39 -128 -39q-97 0 -161 65.5t-64 163.5q0 125 70.5 191t198.5 66q123 0 195 -88t72 -248q0 -196 -83.5 -305t-228.5 -109q-117 0 -212 66zM212 499q0 -47 25.5 -74t67.5 -27q37 0 60.5 17t31.5 36
q-2 138 -96 138q-40 0 -64.5 -24t-24.5 -66z" />
    <glyph glyph-name="colon" unicode=":" horiz-adv-x="334" 
d="M66 481h171v-166h-171v166zM66 166h171v-166h-171v166z" />
    <glyph glyph-name="semicolon" unicode=";" horiz-adv-x="334" 
d="M66 481h171v-166h-171v166zM66 173h171v-173l-80 -150h-76l50 153h-65v170z" />
    <glyph glyph-name="less" unicode="&#x3c;" horiz-adv-x="833" 
d="M704 463l-421 -165l421 -167v-130l-575 236v120l575 239v-133z" />
    <glyph glyph-name="equal" unicode="=" horiz-adv-x="833" 
d="M709 478v-123h-585v123h585zM709 240v-120h-585v120h585z" />
    <glyph glyph-name="greater" unicode="&#x3e;" horiz-adv-x="833" 
d="M549 298l-420 165v133l575 -239v-120l-575 -236v130z" />
    <glyph glyph-name="question" unicode="?" horiz-adv-x="487" 
d="M318 264h-159q-2 10 -2 35q0 59 14 91t55 80q44 45 44 80q0 18 -17.5 32t-40.5 14q-24 0 -47 -15t-34 -40l-143 42q8 63 78 111t166 48q105 0 167.5 -46t62.5 -121q0 -25 -5.5 -46.5t-18.5 -40.5t-21.5 -30t-27.5 -30.5t-25 -25.5q-18 -20 -26 -31t-15 -32.5t-7 -50.5
q0 -12 2 -24zM155 172h170v-172h-170v172z" />
    <glyph glyph-name="at" unicode="@" horiz-adv-x="1000" 
d="M617 449l22 42h108l-67 -266q-7 -25 -7 -44q0 -30 34 -30q40 0 73 40.5t48 89.5t15 89q0 110 -84.5 181t-219.5 71q-164 0 -273 -102t-109 -264q0 -153 98.5 -233t248.5 -80q162 0 290 90l52 -74q-152 -114 -341 -114q-193 0 -326.5 112.5t-133.5 299.5q0 134 67.5 241
t180.5 165t248 58q179 0 295.5 -96t116.5 -265q0 -113 -80.5 -209t-192.5 -96q-50 0 -75 18.5t-29 61.5q-31 -43 -63.5 -59.5t-79.5 -16.5q-76 0 -117 44.5t-41 127.5q0 116 69.5 196.5t158.5 80.5q79 0 114 -59zM561 249l25 102q-14 66 -64 66q-48 0 -85.5 -56.5
t-37.5 -134.5q0 -77 65 -77q32 0 59 27.5t38 72.5z" />
    <glyph glyph-name="A" unicode="A" horiz-adv-x="639" 
d="M204 730h229l216 -730h-190l-29 110h-232l-33 -110h-175zM318 551l-77 -290h149q-51 197 -72 290z" />
    <glyph glyph-name="B" unicode="B" horiz-adv-x="658" 
d="M67 730h275q140 0 207 -48.5t67 -155.5q0 -49 -32.5 -88t-87.5 -57q61 -18 98.5 -61t37.5 -109q0 -107 -67.5 -159t-212.5 -52h-285v730zM247 589v-143h87q96 0 96 71q0 72 -95 72h-88zM247 311v-172h93q102 0 102 87q0 44 -22.5 64.5t-71.5 20.5h-101z" />
    <glyph glyph-name="C" unicode="C" horiz-adv-x="606" 
d="M591 548l-170 -41q-30 74 -87 74q-61 0 -84 -51.5t-23 -172.5q0 -111 21.5 -157.5t82.5 -46.5q37 0 65 21t41 54l171 -51q-25 -84 -98.5 -136.5t-180.5 -52.5q-296 0 -296 370q0 185 81.5 282t234.5 97q93 0 158 -53t84 -136z" />
    <glyph glyph-name="D" unicode="D" horiz-adv-x="695" 
d="M67 730h261q162 0 247.5 -92t85.5 -268q0 -370 -328 -370h-266v730zM254 566v-408h81q74 0 104 50.5t30 161.5q0 196 -145 196h-70z" />
    <glyph glyph-name="E" unicode="E" horiz-adv-x="604" 
d="M67 730h492v-154h-305v-123h223v-150h-223v-139h319v-164h-506v730z" />
    <glyph glyph-name="F" unicode="F" horiz-adv-x="566" 
d="M67 730h485v-156h-298v-136h230v-152h-230v-286h-187v730z" />
    <glyph glyph-name="G" unicode="G" horiz-adv-x="675" 
d="M621 558l-185 -46q-20 69 -89 69q-121 0 -121 -211q0 -224 110 -224q44 0 69 24.5t40 71.5h-102v142h284v-384h-128l-11 91q-48 -103 -176 -103q-127 0 -202.5 100t-75.5 287q0 170 84 266t231 96q107 0 175 -47.5t97 -131.5z" />
    <glyph glyph-name="H" unicode="H" horiz-adv-x="711" 
d="M67 730h187v-273h203v273h187v-730h-187v296h-203v-296h-187v730z" />
    <glyph glyph-name="I" unicode="I" horiz-adv-x="343" 
d="M77 730h189v-730h-189v730z" />
    <glyph glyph-name="J" unicode="J" horiz-adv-x="456" 
d="M206 730h187v-505q0 -123 -52 -180t-170 -57q-60 0 -113.5 29t-82.5 80l132 100q9 -19 26 -36.5t33 -17.5q20 0 30 12.5t10 44.5v530z" />
    <glyph glyph-name="K" unicode="K" horiz-adv-x="696" 
d="M67 730h187v-295l197 295h225l-220 -281l238 -449h-219l-146 287l-75 -100v-187h-187v730z" />
    <glyph glyph-name="L" unicode="L" horiz-adv-x="541" 
d="M67 730h188v-566h274v-164h-462v730z" />
    <glyph glyph-name="M" unicode="M" horiz-adv-x="878" 
d="M812 0h-175v538q-12 -50 -34 -133l-107 -405h-122l-99 405l-34 133v-538h-175v730h273l66 -265q30 -125 34 -192h1q12 103 36 189l74 268h262v-730z" />
    <glyph glyph-name="N" unicode="N" horiz-adv-x="717" 
d="M67 730h180l179 -339q40 -74 50 -104q-4 25 -4 84v359h178v-730h-188l-164 301q-50 91 -58 122q4 -19 4 -92v-331h-177v730z" />
    <glyph glyph-name="O" unicode="O" horiz-adv-x="699" 
d="M350 737q150 0 232.5 -97.5t82.5 -277.5t-82.5 -277t-232.5 -97t-233 97t-83 277t82.5 277.5t233.5 97.5zM350 581q-66 0 -95 -54.5t-29 -164.5q0 -109 29 -161.5t95 -52.5t94.5 52t28.5 162q0 111 -29 165t-94 54z" />
    <glyph glyph-name="P" unicode="P" horiz-adv-x="649" 
d="M635 508q0 -116 -69 -177t-203 -61h-109v-270h-187v730h300q129 0 198.5 -56.5t69.5 -165.5zM254 579v-155h74q111 0 111 73q0 47 -26.5 64.5t-79.5 17.5h-79z" />
    <glyph glyph-name="Q" unicode="Q" horiz-adv-x="700" 
d="M350 737q150 0 232.5 -97.5t82.5 -277.5q0 -153 -62 -249q28 -14 71 -14v-153h-26q-45 0 -77.5 18t-68.5 57q-64 -33 -152 -33q-150 0 -233 97t-83 277t82.5 277.5t233.5 97.5zM350 581q-66 0 -95 -54.5t-29 -164.5q0 -109 29 -161.5t95 -52.5q38 0 64 18q-27 28 -75 38
v153h26q60 0 105 -66q3 32 3 71q0 111 -29 165t-94 54z" />
    <glyph glyph-name="R" unicode="R" horiz-adv-x="682" 
d="M67 730h280q285 0 285 -230q0 -68 -40.5 -121.5t-95.5 -69.5l166 -309h-219l-118 266h-71v-266h-187v730zM254 580v-164h88q94 0 94 83q0 81 -94 81h-88z" />
    <glyph glyph-name="S" unicode="S" horiz-adv-x="601" 
d="M565 585l-169 -61q-34 62 -100 62q-69 0 -69 -47q0 -25 32 -47t113 -53q102 -40 155.5 -93t53.5 -134q0 -111 -68.5 -167.5t-201.5 -56.5q-212 0 -294 153l165 79q20 -36 51.5 -58t67.5 -22q84 0 84 60q0 27 -29 45.5t-120 55.5q-97 39 -149.5 92.5t-52.5 139.5
q0 94 71.5 149t192.5 55q195 0 267 -152z" />
    <glyph glyph-name="T" unicode="T" horiz-adv-x="558" 
d="M12 730h534v-161h-173v-569h-188v569h-173v161z" />
    <glyph glyph-name="U" unicode="U" horiz-adv-x="686" 
d="M62 730h187v-481q0 -105 97 -105q50 0 72.5 24.5t22.5 80.5v481h183v-484q0 -121 -72 -189.5t-203 -68.5q-153 0 -220 71t-67 226v445z" />
    <glyph glyph-name="V" unicode="V" horiz-adv-x="639" 
d="M-8 730h196l133 -559l143 559h183l-209 -730h-236z" />
    <glyph glyph-name="W" unicode="W" horiz-adv-x="981" 
d="M3 730h203l75 -397q15 -77 19 -127q5 50 20 120l87 404h167l88 -408q14 -68 18 -116q3 42 16 110l79 414h203l-177 -730h-223l-72 329q-11 47 -17 104q-5 -40 -19 -105l-71 -328h-219z" />
    <glyph glyph-name="X" unicode="X" horiz-adv-x="656" 
d="M18 730h218l100 -198l98 198h204l-200 -353l214 -377h-218l-115 226l-109 -226h-206l213 376z" />
    <glyph glyph-name="Y" unicode="Y" horiz-adv-x="607" 
d="M-11 730h197l126 -288l123 288h183l-221 -460v-270h-187v269z" />
    <glyph glyph-name="Z" unicode="Z" horiz-adv-x="604" 
d="M41 730h521v-154l-315 -410h326v-166h-546v160l303 409h-289v161z" />
    <glyph glyph-name="bracketleft" unicode="[" horiz-adv-x="333" 
d="M83 737h236v-92h-98v-644h98v-92h-236v828z" />
    <glyph glyph-name="backslash" unicode="\" horiz-adv-x="304" 
d="M-32 737h124l269 -830h-124z" />
    <glyph glyph-name="bracketright" unicode="]" horiz-adv-x="333" 
d="M250 -91h-236v92h98v644h-98v92h236v-828z" />
    <glyph glyph-name="asciicircum" unicode="^" horiz-adv-x="1000" 
d="M570 714l247 -277h-170l-146 175l-147 -175h-171l250 277h137z" />
    <glyph glyph-name="underscore" unicode="_" 
d="M500 -113v-123h-500v123h500z" />
    <glyph glyph-name="grave" unicode="`" 
d="M90 761h158l91 -187h-84z" />
    <glyph glyph-name="a" unicode="a" horiz-adv-x="508" 
d="M465 0h-152l-10 47q-23 -24 -60 -41t-77 -17q-67 0 -108.5 37t-41.5 102q0 166 276 214v12q0 25 -9.5 37.5t-35.5 12.5q-48 0 -92 -51l-116 70q37 49 93 80.5t123 31.5q202 0 202 -155v-309q0 -26 8 -71zM187 160q0 -47 38 -47q26 0 66 34v97q-50 -9 -77 -33t-27 -51z
" />
    <glyph glyph-name="b" unicode="b" horiz-adv-x="556" 
d="M342 535q77 0 132 -74t55 -204q0 -117 -66.5 -191.5t-143.5 -74.5q-25 0 -46 8t-32.5 16.5t-33.5 28.5q-1 -13 -10 -44h-150q8 44 8 82v648h166v-242q33 27 57 37t64 10zM221 145q28 -16 50 -16q40 0 64 37t24 102q0 59 -20 91.5t-53 32.5q-41 0 -65 -22v-225z" />
    <glyph glyph-name="c" unicode="c" horiz-adv-x="486" 
d="M479 390l-146 -53q-25 60 -64 60q-71 0 -71 -138q0 -131 71 -131q25 0 40 15.5t29 47.5l143 -63q-25 -64 -80 -101.5t-130 -37.5q-117 0 -180.5 72.5t-63.5 209.5q0 122 66 193t181 71q73 0 127.5 -38.5t77.5 -106.5z" />
    <glyph glyph-name="d" unicode="d" horiz-adv-x="556" 
d="M337 730h164v-648q0 -38 8 -82h-152q-6 25 -9 47q-56 -58 -136 -58q-75 0 -130 73.5t-55 197.5q0 122 66 198.5t142 76.5q53 0 102 -41v236zM335 385q-35 10 -50 10q-40 0 -64 -36.5t-24 -101.5q0 -60 20 -92.5t53 -32.5q41 0 65 22v231z" />
    <glyph glyph-name="e" unicode="e" horiz-adv-x="521" 
d="M272 123q26 0 44.5 12.5t38.5 41.5l128 -74q-28 -53 -85 -83.5t-136 -30.5q-107 0 -171 73t-64 200t63.5 200t170.5 73q114 0 174.5 -72.5t60.5 -205.5v-35h-298q4 -99 74 -99zM329 330v10q0 31 -15.5 51t-47.5 20q-28 0 -47 -22.5t-19 -58.5h129z" />
    <glyph glyph-name="f" unicode="f" horiz-adv-x="331" 
d="M319 735v-131q-24 3 -44 3q-27 0 -35 -12.5t-8 -48.5v-22h81v-117h-81v-407h-166v407h-59v117h59v83q0 65 42 100t125 35q37 0 86 -7z" />
    <glyph glyph-name="g" unicode="g" horiz-adv-x="517" 
d="M117 216q-32 16 -54 53.5t-22 84.5q0 81 58 131.5t148 50.5q86 0 135 -40q28 45 97 45l21 -1v-110q-12 3 -28 3q-23 0 -34 -5q21 -29 21 -89q0 -73 -55 -118.5t-151 -45.5q-33 0 -39 1q-28 -11 -28 -22q0 -20 87 -24q131 -5 180.5 -34.5t49.5 -112.5q0 -80 -66.5 -126.5
t-182.5 -46.5q-240 0 -240 134q0 35 22 55t72 33q-75 20 -75 83q0 28 22.5 55.5t61.5 45.5zM312 -9l-118 4q-22 -13 -22 -30q0 -42 64 -42q62 0 94 10t32 39q0 17 -50 19zM199 354q0 -29 15 -46t39 -17t39 18t15 47t-15 46t-39 17t-39 -18t-15 -47z" />
    <glyph glyph-name="h" unicode="h" horiz-adv-x="562" 
d="M55 730h166v-252q77 57 145 57q78 0 111.5 -45t33.5 -146v-344h-166v323q0 40 -8 54t-32 14q-21 0 -45 -11t-39 -26v-354h-166v730z" />
    <glyph glyph-name="i" unicode="i" horiz-adv-x="276" 
d="M55 730h166v-141h-166v141zM55 524h166v-524h-166v524z" />
    <glyph glyph-name="j" unicode="j" horiz-adv-x="287" 
d="M66 524h166v-542q0 -85 -41 -128.5t-113 -43.5q-58 0 -97 11v127q21 -3 42 -3q26 0 34.5 11.5t8.5 45.5v522zM66 730h166v-141h-166v141z" />
    <glyph glyph-name="k" unicode="k" horiz-adv-x="538" 
d="M55 730h166v-387l122 181h187l-163 -195l177 -329h-189l-98 193l-36 -48v-145h-166v730z" />
    <glyph glyph-name="l" unicode="l" horiz-adv-x="279" 
d="M55 730h169v-730h-169v730z" />
    <glyph glyph-name="m" unicode="m" horiz-adv-x="835" 
d="M476 468q71 67 163 67q69 0 107 -33t38 -89v-413h-166v326q0 38 -6.5 51.5t-30.5 13.5q-40 0 -79 -35v-356h-165v325q0 38 -6.5 52t-30.5 14q-42 0 -79 -35v-356h-166v524h154v-52q24 23 64.5 43t81.5 20q45 0 73 -15.5t48 -51.5z" />
    <glyph glyph-name="n" unicode="n" horiz-adv-x="562" 
d="M511 344v-344h-166v322q0 38 -7.5 53.5t-29.5 15.5q-48 0 -87 -37v-354h-166v524h155v-53q45 33 79 48.5t77 15.5q78 0 111.5 -45t33.5 -146z" />
    <glyph glyph-name="o" unicode="o" horiz-adv-x="532" 
d="M266 535q111 0 175 -72t64 -200t-64 -201t-175 -73t-175 72.5t-64 200.5t64 200.5t175 72.5zM266 401q-37 0 -53 -34t-16 -105q0 -139 69 -139q37 0 53 34t16 106q0 138 -69 138z" />
    <glyph glyph-name="p" unicode="p" horiz-adv-x="556" 
d="M221 143q25 -14 51 -14q39 0 63 37t24 102q0 58 -20.5 91t-52.5 33q-41 0 -65 -22v-227zM221 27v-217h-166v714h135l12 -50q40 37 66 49t67 12q81 0 137.5 -73t56.5 -197q0 -123 -65.5 -198.5t-143.5 -75.5q-61 0 -99 36z" />
    <glyph glyph-name="q" unicode="q" horiz-adv-x="556" 
d="M349 480q1 13 10 44h150q-8 -46 -8 -83v-631h-166v227q-30 -27 -56.5 -37.5t-67.5 -10.5q-75 0 -129.5 74t-54.5 204q0 117 66.5 192.5t142.5 75.5q25 0 47 -9t33 -17.5t33 -28.5zM335 379q-28 16 -50 16q-40 0 -64 -36.5t-24 -101.5q0 -60 20 -92.5t53 -32.5q41 0 65 22
v225z" />
    <glyph glyph-name="r" unicode="r" horiz-adv-x="352" 
d="M336 534v-175h-3q-81 0 -112 -23v-336h-166v524h156v-60q49 72 112 72q5 0 13 -2z" />
    <glyph glyph-name="s" unicode="s" horiz-adv-x="442" 
d="M411 456l-103 -84q-41 41 -79 41q-40 0 -40 -27q0 -13 20 -26t72 -37q79 -35 109.5 -68t30.5 -104q0 -79 -57 -120.5t-145 -41.5q-126 0 -209 97l111 89q18 -24 44.5 -42t47.5 -18q46 0 46 30q0 26 -83 61q-144 59 -144 174q0 70 53 112.5t143 42.5q110 0 183 -79z" />
    <glyph glyph-name="t" unicode="t" horiz-adv-x="342" 
d="M70 692h167v-168h83v-117h-83v-225q0 -33 6.5 -42.5t32.5 -9.5q24 0 44 2v-133q-60 -10 -127 -10t-95 32.5t-28 106.5v279h-59v117h59v168z" />
    <glyph glyph-name="u" unicode="u" horiz-adv-x="562" 
d="M51 524h166v-319q0 -42 8.5 -57t31.5 -15q20 0 45 11t39 26v354h166v-524h-155v53q-43 -33 -77 -48.5t-76 -15.5q-80 0 -114 44.5t-34 145.5v345z" />
    <glyph glyph-name="v" unicode="v" horiz-adv-x="526" 
d="M-1 524h177l71 -258q12 -41 17 -90q4 44 18 90l73 258h172l-181 -524h-166z" />
    <glyph glyph-name="w" unicode="w" horiz-adv-x="768" 
d="M0 524h176l58 -238q5 -18 8 -57q2 26 10 58l61 237h143l61 -236q8 -28 10 -59q3 34 8 57l53 238h180l-159 -524h-141l-65 220q-13 42 -18 81q-4 -30 -18 -77l-66 -224h-142z" />
    <glyph glyph-name="x" unicode="x" horiz-adv-x="536" 
d="M9 524h202l65 -134l69 134h180l-157 -252l168 -272h-202l-73 143l-79 -143h-182l166 267z" />
    <glyph glyph-name="y" unicode="y" horiz-adv-x="526" 
d="M113 -56q50 0 68 72l-182 508h177l73 -252q11 -42 17 -76q5 29 19 79l69 249h173l-161 -464q-18 -52 -28.5 -79t-27 -61t-32 -50t-39.5 -32.5t-54 -22t-70 -5.5q-33 0 -66 11v131q38 -8 64 -8z" />
    <glyph glyph-name="z" unicode="z" horiz-adv-x="464" 
d="M31 524h405v-123l-209 -263h212v-138h-421v119l215 270h-202v135z" />
    <glyph glyph-name="braceleft" unicode="{" 
d="M429 624h-26q-48 0 -61.5 -19.5t-13.5 -74.5v-118q0 -69 -20 -100t-80 -44q59 -14 79.5 -45.5t20.5 -98.5v-115q0 -56 14 -76.5t62 -20.5h25v-105h-40q-93 0 -138 24q-31 17 -41.5 49.5t-10.5 90.5v122q0 67 -24 94.5t-83 27.5h-21v106h20q58 0 83 28t25 93v123
q0 60 9.5 91.5t42.5 50.5q40 23 152 23h26v-106z" />
    <glyph glyph-name="bar" unicode="|" 
d="M309 764v-1000h-118v1000h118z" />
    <glyph glyph-name="braceright" unicode="}" 
d="M71 -87h26q48 0 61.5 19.5t13.5 74.5v117q0 69 20 100t80 44q-59 14 -79.5 45.5t-20.5 98.5v116q0 56 -14 76.5t-62 20.5h-25v105h40q93 0 138 -24q31 -17 41.5 -49.5t10.5 -90.5v-123q0 -67 24 -94.5t83 -27.5h21v-106h-20q-58 0 -83 -28t-25 -93v-122q0 -60 -9.5 -91.5
t-42.5 -50.5q-40 -23 -152 -23h-26v106z" />
    <glyph glyph-name="asciitilde" unicode="~" horiz-adv-x="833" 
d="M747 273q-104 -70 -183 -70q-73 0 -152 33q-75 31 -140 31q-78 0 -185 -75v129q103 70 186 70q64 0 148 -32q83 -32 143 -32q80 0 183 75v-129z" />
    <glyph glyph-name="uni00A0" unicode="&#xa0;" horiz-adv-x="304" 
 />
    <glyph glyph-name="exclamdown" unicode="&#xa1;" horiz-adv-x="334" 
d="M268 0h-196l30 466h137zM255 558h-170v172h170v-172z" />
    <glyph glyph-name="cent" unicode="&#xa2;" horiz-adv-x="609" 
d="M539 404l-154 -57q-25 60 -66 60q-73 0 -73 -138q0 -131 73 -131q44 0 71 63l151 -67q-22 -56 -70 -91t-115 -42v-111h-78v111q-101 13 -155 84.5t-54 195.5q0 109 55 178.5t154 82.5v100h78v-99q66 -8 114 -44t69 -95z" />
    <glyph glyph-name="sterling" unicode="&#xa3;" horiz-adv-x="609" 
d="M569 515v-5h-188v29q0 49 -57 49q-28 0 -43 -13.5t-15 -35.5q0 -27 17 -120h137v-121h-123q3 -15 3 -39q0 -42 -16 -88q28 -24 64 -24q73 0 73 72q0 7 -2 27h155q4 -24 4 -51q0 -97 -52.5 -150.5t-146.5 -53.5q-111 0 -170 56q-48 -54 -176 -58v162q53 5 76.5 24.5
t23.5 62.5q0 24 -3 60h-97v121h80q-19 72 -19 123q0 86 62.5 140.5t162.5 54.5q120 0 185 -58.5t65 -163.5z" />
    <glyph glyph-name="currency" unicode="&#xa4;" horiz-adv-x="609" 
d="M75 376q0 52 24 102l-75 78l97 99l76 -77q49 26 105 26q57 0 106 -26l77 77l100 -99l-79 -79q24 -48 24 -101q0 -55 -25 -102l80 -82l-100 -97l-78 79q-50 -25 -105 -25q-56 0 -104 25l-77 -79l-97 97l76 80q-25 48 -25 104zM210 376q0 -38 27 -65t65 -27t65.5 27
t27.5 65t-27.5 65.5t-65.5 27.5t-65 -27.5t-27 -65.5z" />
    <glyph glyph-name="yen" unicode="&#xa5;" horiz-adv-x="609" 
d="M4 727h193l116 -268l113 268h179l-116 -244h92v-80h-130l-32 -68h162v-80h-185v-255h-183v255h-185v80h162l-33 68h-129v80h91z" />
    <glyph glyph-name="brokenbar" unicode="&#xa6;" 
d="M309 699v-370h-118v370h118zM309 199v-370h-118v370h118z" />
    <glyph glyph-name="section" unicode="&#xa7;" 
d="M144 491q-52 49 -52 108q0 68 40.5 102.5t115.5 34.5q93 0 177 -95l-85 -69q-56 60 -86 60q-35 0 -35 -31q0 -20 32 -53l169 -171q54 -55 54 -127q0 -42 -33.5 -71.5t-83.5 -29.5q52 -49 52 -108q0 -68 -40.5 -102.5t-115.5 -34.5q-93 0 -177 95l85 69q57 -60 86 -60
q35 0 35 31q0 20 -32 53l-175 178q-29 29 -39 55t-10 65q0 42 34 71.5t84 29.5zM329 288l-108 110q-21 22 -42 22q-12 0 -20.5 -9t-8.5 -21q0 -15 22 -38l108 -110q21 -22 42 -22q12 0 20.5 9t8.5 21q0 15 -22 38z" />
    <glyph glyph-name="dieresis" unicode="&#xa8;" 
d="M78 730h135v-141h-135v141zM286 730h136v-141h-136v141z" />
    <glyph glyph-name="copyright" unicode="&#xa9;" horiz-adv-x="833" 
d="M417 722q151 0 258 -107q105 -105 105 -255q0 -158 -103 -258q-109 -107 -260 -107q-149 0 -256 107q-108 108 -108 258q0 144 109 256q103 106 255 106zM720 360q0 125 -88 213q-85 87 -214 87q-130 0 -214 -87q-87 -92 -87 -213q0 -124 88 -212q90 -90 213 -90
q125 0 214 89q88 88 88 213zM497 285l69 -19q-14 -52 -52 -79.5t-95 -27.5q-157 0 -157 205q0 99 42 153t119 54q54 0 89 -27t46 -78l-69 -17q-15 58 -70 58q-81 0 -81 -144q0 -137 83 -137q27 0 48 16t28 43z" />
    <glyph glyph-name="ordfeminine" unicode="&#xaa;" horiz-adv-x="384" 
d="M343 623v-218q0 -25 4 -44h-109l-8 30q-56 -36 -106 -36t-80.5 27t-30.5 73q0 122 208 151v3q0 18 -7.5 26t-26.5 8q-44 0 -73 -33l-84 48q26 36 69 57.5t90 21.5q76 0 115 -31t39 -83zM136 470q0 -26 31 -26q26 0 54 28v61q-85 -13 -85 -63z" />
    <glyph glyph-name="guillemotleft" unicode="&#xab;" horiz-adv-x="536" 
d="M283 97h-143l-112 166l116 162h141l-119 -162zM516 97h-143l-112 166l116 162h141l-119 -162z" />
    <glyph glyph-name="logicalnot" unicode="&#xac;" horiz-adv-x="833" 
d="M709 434v-273h-134v149h-451v124h585z" />
    <glyph glyph-name="uni00AD" unicode="&#xad;" horiz-adv-x="322" 
d="M33 339h256v-141h-256v141z" />
    <glyph glyph-name="registered" unicode="&#xae;" horiz-adv-x="833" 
d="M417 722q154 0 261 -110q102 -102 102 -252q0 -156 -107 -261q-107 -104 -256 -104q-72 0 -139.5 28.5t-119.5 81.5q-105 107 -105 255q0 151 109 258q107 104 255 104zM720 352q0 128 -88 217q-91 91 -214 91t-210 -87q-91 -91 -91 -213q0 -126 86 -211q91 -91 207 -91
q131 0 221 87q89 84 89 207zM285 165v400h135q150 0 150 -120q0 -81 -73 -101l88 -179h-81l-77 162h-68v-162h-74zM359 390h65q70 0 70 56q0 55 -70 55h-65v-111z" />
    <glyph glyph-name="macron" unicode="&#xaf;" 
d="M98 709h304v-92h-304v92z" />
    <glyph glyph-name="degree" unicode="&#xb0;" horiz-adv-x="332" 
d="M15 570q0 62 44.5 106.5t106.5 44.5t106.5 -44.5t44.5 -106.5t-44.5 -106.5t-106.5 -44.5t-106.5 44.5t-44.5 106.5zM91 570q0 -32 21.5 -53.5t53.5 -21.5t54 22t22 53q0 32 -22 54t-54 22q-31 0 -53 -22t-22 -54z" />
    <glyph glyph-name="plusminus" unicode="&#xb1;" horiz-adv-x="833" 
d="M478 599v-148h231v-118h-231v-148h-124v148h-230v118h230v148h124zM709 118v-118h-585v118h585z" />
    <glyph glyph-name="twosuperior" unicode="&#xb2;" horiz-adv-x="402" 
d="M187 395h177v-104h-334v94q38 49 158 132q53 35 53 72q0 43 -44 43q-46 0 -54 -44l-111 21q9 57 55.5 91.5t117.5 34.5q70 0 115 -37t45 -93q0 -47 -25 -82.5t-81 -71.5q-54 -35 -72 -56z" />
    <glyph glyph-name="threesuperior" unicode="&#xb3;" horiz-adv-x="402" 
d="M273 519q81 -16 81 -101q0 -65 -45.5 -99.5t-127.5 -34.5q-121 0 -171 86l96 54q21 -25 34 -33t35 -8q25 0 40.5 12.5t15.5 32.5q0 45 -95 45h-10v85h14q37 0 57 12t20 30q0 16 -11.5 27.5t-31.5 11.5q-39 0 -67 -33l-80 58q20 29 62 50t92 21q70 0 114.5 -32.5
t44.5 -80.5q0 -72 -67 -103z" />
    <glyph glyph-name="acute" unicode="&#xb4;" 
d="M252 761h157l-165 -187h-84z" />
    <glyph glyph-name="micro" unicode="&#xb5;" horiz-adv-x="599" 
d="M555 105l-19 -101q-39 -12 -98 -12q-36 0 -55.5 10.5t-22.5 44.5q-36 -56 -103 -56q-30 0 -49 12t-33 44l-46 -237h-157l141 714h158l-51 -258q-7 -35 -7 -53q0 -42 14 -61.5t51 -19.5q43 0 61 36.5t38 133.5l44 222h158l-64 -323q-10 -49 -10 -68q0 -29 32 -29
q12 0 18 1z" />
    <glyph glyph-name="paragraph" unicode="&#xb6;" 
d="M480 665h-54v-665h-76v665h-77v-665h-77v384q-81 2 -129 49t-48 119q0 76 51.5 123t138.5 47h271v-57z" />
    <glyph glyph-name="periodcentered" unicode="&#xb7;" horiz-adv-x="304" 
d="M51 372q0 42 29.5 71.5t71.5 29.5t71.5 -29.5t29.5 -71.5t-29.5 -71.5t-71.5 -29.5t-71.5 29.5t-29.5 71.5z" />
    <glyph glyph-name="cedilla" unicode="&#xb8;" 
d="M219 0h62v-38h2q61 0 90.5 -24.5t29.5 -78.5q0 -101 -135 -101q-55 0 -136 22v80q80 -24 128 -24q23 0 32 7.5t9 25.5q0 22 -50 22q-21 0 -32 -1v110z" />
    <glyph glyph-name="onesuperior" unicode="&#xb9;" horiz-adv-x="402" 
d="M190 730h81v-347h71v-92h-269v92h72v236h-77v69q84 14 122 42z" />
    <glyph glyph-name="ordmasculine" unicode="&#xba;" horiz-adv-x="384" 
d="M192 737q80 0 126 -51.5t46 -141.5q0 -88 -46.5 -139t-125.5 -51t-125.5 51.5t-46.5 138.5q0 91 45.5 142t126.5 51zM192 635q-46 0 -46 -91q0 -90 46 -90q25 0 35.5 21.5t10.5 68.5q0 48 -10.5 69.5t-35.5 21.5z" />
    <glyph glyph-name="guillemotright" unicode="&#xbb;" horiz-adv-x="536" 
d="M163 97h-143l117 166l-119 162h141l116 -162zM396 97h-143l117 166l-119 162h141l116 -162z" />
    <glyph glyph-name="onequarter" unicode="&#xbc;" horiz-adv-x="936" 
d="M741 408h120v-251h55v-86h-55v-71h-116v71h-198v90zM746 276l-94 -120h94v120zM629 737h96l-419 -749h-96zM177 730h75v-323h66v-85h-250v85h67v220h-72v64q76 12 114 39z" />
    <glyph glyph-name="onehalf" unicode="&#xbd;" horiz-adv-x="936" 
d="M177 730h75v-323h66v-85h-250v85h67v220h-72v64q76 12 114 39zM629 737h96l-419 -749h-96zM731 96h165v-96h-311v87q35 46 147 123q49 32 49 67q0 40 -41 40q-42 0 -50 -41l-103 19q8 53 51 85.5t110 32.5q64 0 106 -34.5t42 -86.5q0 -45 -23 -77.5t-75 -66.5
q-50 -32 -67 -52z" />
    <glyph glyph-name="threequarters" unicode="&#xbe;" horiz-adv-x="936" 
d="M741 408h120v-251h55v-86h-55v-71h-116v71h-198v90zM746 276l-94 -120h94v120zM627 737h96l-419 -749h-96zM254 534q75 -16 75 -94q0 -60 -42.5 -92.5t-118.5 -32.5q-112 0 -159 80l90 50q19 -23 31 -30.5t33 -7.5q23 0 37.5 11.5t14.5 30.5q0 42 -89 42h-9v79h13
q35 0 53.5 11t18.5 28q0 15 -11 25.5t-29 10.5q-37 0 -62 -30l-75 54q18 26 57.5 46t85.5 20q66 0 107 -30.5t41 -75.5q0 -67 -62 -95z" />
    <glyph glyph-name="questiondown" unicode="&#xbf;" horiz-adv-x="487" 
d="M169 466h159q2 -10 2 -35q0 -59 -14 -91t-55 -80q-44 -45 -44 -80q0 -18 17.5 -32t40.5 -14q24 0 47 15t34 40l143 -42q-8 -63 -78 -111t-166 -48q-105 0 -167.5 46t-62.5 121q0 25 5.5 46.5t18.5 40.5t21.5 30t27.5 30.5t25 25.5q18 20 26 31t15 32.5t7 50.5q0 12 -2 24
zM332 558h-170v172h170v-172z" />
    <glyph glyph-name="Agrave" unicode="&#xc0;" horiz-adv-x="639" 
d="M204 730h229l216 -730h-190l-29 110h-232l-33 -110h-175zM318 551l-77 -290h149q-51 197 -72 290zM158 966h158l91 -187h-84z" />
    <glyph glyph-name="Aacute" unicode="&#xc1;" horiz-adv-x="639" 
d="M204 730h229l216 -730h-190l-29 110h-232l-33 -110h-175zM318 551l-77 -290h149q-51 197 -72 290zM320 966h157l-165 -187h-84z" />
    <glyph glyph-name="Acircumflex" unicode="&#xc2;" horiz-adv-x="639" 
d="M204 730h229l216 -730h-190l-29 110h-232l-33 -110h-175zM318 551l-77 -290h149q-51 197 -72 290zM248 966h140l96 -187h-83l-83 95l-85 -95h-81z" />
    <glyph glyph-name="Atilde" unicode="&#xc3;" horiz-adv-x="639" 
d="M204 730h229l216 -730h-190l-29 110h-232l-33 -110h-175zM318 551l-77 -290h149q-51 197 -72 290zM420 953h65q-13 -72 -37.5 -105.5t-68.5 -33.5q-26 0 -63.5 13.5t-54.5 13.5q-33 0 -44 -47h-65q14 72 38 105.5t66 33.5q26 0 63.5 -13.5t54.5 -13.5q37 0 46 47z" />
    <glyph glyph-name="Adieresis" unicode="&#xc4;" horiz-adv-x="639" 
d="M204 730h229l216 -730h-190l-29 110h-232l-33 -110h-175zM318 551l-77 -290h149q-51 197 -72 290zM147 930h135v-141h-135v141zM355 930h136v-141h-136v141z" />
    <glyph glyph-name="Aring" unicode="&#xc5;" horiz-adv-x="639" 
d="M318 964q57 0 97 -40.5t40 -97.5q0 -42 -24 -74t-63 -46h72l209 -706h-190l-29 110h-232l-33 -110h-175l207 706h70q-38 14 -61 46t-23 74q0 57 38.5 97.5t96.5 40.5zM318 551l-77 -290h149q-51 197 -72 290zM318 879q-22 0 -36 -15t-14 -38q0 -22 14 -36t36 -14t36.5 15
t14.5 35q0 22 -15 37.5t-36 15.5z" />
    <glyph glyph-name="AE" unicode="&#xc6;" horiz-adv-x="914" 
d="M296 730h575v-154h-284v-123h204v-150h-204v-138h296v-165h-471v103h-195l-38 -103h-194zM405 570l-120 -309h127v309h-7z" />
    <glyph glyph-name="Ccedilla" unicode="&#xc7;" horiz-adv-x="606" 
d="M591 548l-170 -41q-30 74 -87 74q-61 0 -84 -51.5t-23 -172.5q0 -111 21.5 -157.5t82.5 -46.5q37 0 65 21t41 54l171 -51q-24 -81 -93.5 -133t-170.5 -56v-26h2q61 0 90.5 -24.5t29.5 -78.5q0 -101 -135 -101q-55 0 -136 22v80q80 -24 128 -24q23 0 32 7.5t9 25.5
q0 22 -50 22q-21 0 -32 -1v101q-249 27 -249 367q0 185 81.5 282t234.5 97q93 0 158 -53t84 -136z" />
    <glyph glyph-name="Egrave" unicode="&#xc8;" horiz-adv-x="604" 
d="M67 730h492v-154h-305v-123h223v-150h-223v-139h319v-164h-506v730zM152 966h158l91 -187h-84z" />
    <glyph glyph-name="Eacute" unicode="&#xc9;" horiz-adv-x="604" 
d="M67 730h492v-154h-305v-123h223v-150h-223v-139h319v-164h-506v730zM314 966h157l-165 -187h-84z" />
    <glyph glyph-name="Ecircumflex" unicode="&#xca;" horiz-adv-x="604" 
d="M242 966h140l96 -187h-83l-83 95l-85 -95h-81zM67 730h492v-154h-305v-123h223v-150h-223v-139h319v-164h-506v730z" />
    <glyph glyph-name="Edieresis" unicode="&#xcb;" horiz-adv-x="604" 
d="M67 730h492v-154h-305v-123h223v-150h-223v-139h319v-164h-506v730zM140 930h135v-141h-135v141zM348 930h136v-141h-136v141z" />
    <glyph glyph-name="Igrave" unicode="&#xcc;" horiz-adv-x="363" 
d="M87 730h189v-730h-189v730zM21 966h158l91 -187h-84z" />
    <glyph glyph-name="Iacute" unicode="&#xcd;" horiz-adv-x="363" 
d="M87 730h189v-730h-189v730zM183 966h157l-165 -187h-84z" />
    <glyph glyph-name="Icircumflex" unicode="&#xce;" horiz-adv-x="363" 
d="M87 730h189v-730h-189v730zM111 966h140l96 -187h-83l-83 95l-85 -95h-81z" />
    <glyph glyph-name="Idieresis" unicode="&#xcf;" horiz-adv-x="363" 
d="M87 730h189v-730h-189v730zM9 930h135v-141h-135v141zM217 930h136v-141h-136v141z" />
    <glyph glyph-name="Eth" unicode="&#xd0;" horiz-adv-x="694" 
d="M74 730h261q162 0 247.5 -92t85.5 -268q0 -370 -328 -370h-266v323h-68v98h68v309zM261 566v-145h112v-98h-112v-165h81q74 0 104 50.5t30 161.5q0 196 -145 196h-70z" />
    <glyph glyph-name="Ntilde" unicode="&#xd1;" horiz-adv-x="715" 
d="M67 730h180l179 -339q40 -74 50 -104q-4 25 -4 84v359h178v-730h-188l-164 301q-50 91 -58 122q4 -19 4 -92v-331h-177v730zM462 953h65q-13 -72 -37.5 -105.5t-68.5 -33.5q-26 0 -63.5 13.5t-54.5 13.5q-33 0 -44 -47h-65q14 72 38 105.5t66 33.5q26 0 63.5 -13.5
t54.5 -13.5q37 0 46 47z" />
    <glyph glyph-name="Ograve" unicode="&#xd2;" horiz-adv-x="699" 
d="M350 737q150 0 232.5 -97.5t82.5 -277.5t-82.5 -277t-232.5 -97t-233 97t-83 277t82.5 277.5t233.5 97.5zM350 581q-66 0 -95 -54.5t-29 -164.5q0 -109 29 -161.5t95 -52.5t94.5 52t28.5 162q0 111 -29 165t-94 54zM190 966h158l91 -187h-84z" />
    <glyph glyph-name="Oacute" unicode="&#xd3;" horiz-adv-x="699" 
d="M350 737q150 0 232.5 -97.5t82.5 -277.5t-82.5 -277t-232.5 -97t-233 97t-83 277t82.5 277.5t233.5 97.5zM350 581q-66 0 -95 -54.5t-29 -164.5q0 -109 29 -161.5t95 -52.5t94.5 52t28.5 162q0 111 -29 165t-94 54zM352 966h157l-165 -187h-84z" />
    <glyph glyph-name="Ocircumflex" unicode="&#xd4;" horiz-adv-x="699" 
d="M350 737q150 0 232.5 -97.5t82.5 -277.5t-82.5 -277t-232.5 -97t-233 97t-83 277t82.5 277.5t233.5 97.5zM350 581q-66 0 -95 -54.5t-29 -164.5q0 -109 29 -161.5t95 -52.5t94.5 52t28.5 162q0 111 -29 165t-94 54zM280 966h140l96 -187h-83l-83 95l-85 -95h-81z" />
    <glyph glyph-name="Otilde" unicode="&#xd5;" horiz-adv-x="699" 
d="M350 737q150 0 232.5 -97.5t82.5 -277.5t-82.5 -277t-232.5 -97t-233 97t-83 277t82.5 277.5t233.5 97.5zM350 581q-66 0 -95 -54.5t-29 -164.5q0 -109 29 -161.5t95 -52.5t94.5 52t28.5 162q0 111 -29 165t-94 54zM452 953h65q-13 -72 -37.5 -105.5t-68.5 -33.5
q-26 0 -63.5 13.5t-54.5 13.5q-33 0 -44 -47h-65q14 72 38 105.5t66 33.5q26 0 63.5 -13.5t54.5 -13.5q37 0 46 47z" />
    <glyph glyph-name="Odieresis" unicode="&#xd6;" horiz-adv-x="699" 
d="M350 737q150 0 232.5 -97.5t82.5 -277.5t-82.5 -277t-232.5 -97t-233 97t-83 277t82.5 277.5t233.5 97.5zM350 581q-66 0 -95 -54.5t-29 -164.5q0 -109 29 -161.5t95 -52.5t94.5 52t28.5 162q0 111 -29 165t-94 54zM178 930h135v-141h-135v141zM386 930h136v-141h-136
v141z" />
    <glyph glyph-name="multiply" unicode="&#xd7;" horiz-adv-x="833" 
d="M415 391l203 201l89 -88l-201 -204l201 -201l-88 -93l-204 205l-201 -205l-88 93l201 201l-201 204l88 88z" />
    <glyph glyph-name="Oslash" unicode="&#xd8;" horiz-adv-x="683" 
d="M342 737q94 0 161 -39l59 87l87 -54l-68 -100q76 -99 76 -269q0 -180 -82.5 -277t-232.5 -97q-97 0 -167 41l-61 -91l-85 56l70 104q-73 96 -73 264q0 180 82.5 277.5t233.5 97.5zM465 362q0 49 -6 88l-188 -280q26 -22 71 -22q66 0 94.5 52t28.5 162zM342 581
q-66 0 -95 -54.5t-29 -164.5q0 -49 4 -81l188 278q-26 22 -68 22z" />
    <glyph glyph-name="Ugrave" unicode="&#xd9;" horiz-adv-x="686" 
d="M62 730h187v-481q0 -105 97 -105q50 0 72.5 24.5t22.5 80.5v481h183v-484q0 -121 -72 -189.5t-203 -68.5q-153 0 -220 71t-67 226v445zM184 966h158l91 -187h-84z" />
    <glyph glyph-name="Uacute" unicode="&#xda;" horiz-adv-x="686" 
d="M62 730h187v-481q0 -105 97 -105q50 0 72.5 24.5t22.5 80.5v481h183v-484q0 -121 -72 -189.5t-203 -68.5q-153 0 -220 71t-67 226v445zM346 966h157l-165 -187h-84z" />
    <glyph glyph-name="Ucircumflex" unicode="&#xdb;" horiz-adv-x="686" 
d="M62 730h187v-481q0 -105 97 -105q50 0 72.5 24.5t22.5 80.5v481h183v-484q0 -121 -72 -189.5t-203 -68.5q-153 0 -220 71t-67 226v445zM274 966h140l96 -187h-83l-83 95l-85 -95h-81z" />
    <glyph glyph-name="Udieresis" unicode="&#xdc;" horiz-adv-x="686" 
d="M62 730h187v-481q0 -105 97 -105q50 0 72.5 24.5t22.5 80.5v481h183v-484q0 -121 -72 -189.5t-203 -68.5q-153 0 -220 71t-67 226v445zM172 930h135v-141h-135v141zM380 930h136v-141h-136v141z" />
    <glyph glyph-name="Yacute" unicode="&#xdd;" horiz-adv-x="607" 
d="M-11 730h197l126 -288l123 288h183l-221 -460v-270h-187v269zM310 966h157l-165 -187h-84z" />
    <glyph glyph-name="Thorn" unicode="&#xde;" horiz-adv-x="652" 
d="M635 382q0 -114 -69.5 -174.5t-203.5 -60.5h-108v-147h-187v730h187v-127h113q129 0 198.5 -56t69.5 -165zM254 453v-157h74q111 0 111 74q0 47 -26.5 65t-79.5 18h-79z" />
    <glyph glyph-name="germandbls" unicode="&#xdf;" horiz-adv-x="556" 
d="M404 396q63 -13 95 -60.5t32 -145.5q0 -99 -53 -150t-140 -51q-69 0 -101 19l30 116q14 -9 42 -9q22 0 37 23.5t15 75.5q0 110 -98 110h-6v125h6q22 0 44 19.5t22 56.5q0 81 -56 81q-52 0 -52 -85v-521h-166v503q0 115 55.5 176.5t156.5 61.5q225 0 225 -202
q0 -120 -88 -143z" />
    <glyph glyph-name="agrave" unicode="&#xe0;" horiz-adv-x="508" 
d="M465 0h-152l-10 47q-23 -24 -60 -41t-77 -17q-67 0 -108.5 37t-41.5 102q0 166 276 214v12q0 25 -9.5 37.5t-35.5 12.5q-48 0 -92 -51l-116 70q37 49 93 80.5t123 31.5q202 0 202 -155v-309q0 -26 8 -71zM187 160q0 -47 38 -47q26 0 66 34v97q-50 -9 -77 -33t-27 -51z
M94 761h158l91 -187h-84z" />
    <glyph glyph-name="aacute" unicode="&#xe1;" horiz-adv-x="508" 
d="M465 0h-152l-10 47q-23 -24 -60 -41t-77 -17q-67 0 -108.5 37t-41.5 102q0 166 276 214v12q0 25 -9.5 37.5t-35.5 12.5q-48 0 -92 -51l-116 70q37 49 93 80.5t123 31.5q202 0 202 -155v-309q0 -26 8 -71zM187 160q0 -47 38 -47q26 0 66 34v97q-50 -9 -77 -33t-27 -51z
M260 761h157l-165 -187h-84z" />
    <glyph glyph-name="acircumflex" unicode="&#xe2;" horiz-adv-x="508" 
d="M465 0h-152l-10 47q-23 -24 -60 -41t-77 -17q-67 0 -108.5 37t-41.5 102q0 166 276 214v12q0 25 -9.5 37.5t-35.5 12.5q-48 0 -92 -51l-116 70q37 49 93 80.5t123 31.5q202 0 202 -155v-309q0 -26 8 -71zM187 160q0 -47 38 -47q26 0 66 34v97q-50 -9 -77 -33t-27 -51z
M186 761h140l96 -187h-83l-83 95l-85 -95h-81z" />
    <glyph glyph-name="atilde" unicode="&#xe3;" horiz-adv-x="508" 
d="M465 0h-152l-10 47q-23 -24 -60 -41t-77 -17q-67 0 -108.5 37t-41.5 102q0 166 276 214v12q0 25 -9.5 37.5t-35.5 12.5q-48 0 -92 -51l-116 70q37 49 93 80.5t123 31.5q202 0 202 -155v-309q0 -26 8 -71zM187 160q0 -47 38 -47q26 0 66 34v97q-50 -9 -77 -33t-27 -51z
M356 753h65q-13 -72 -37.5 -105.5t-68.5 -33.5q-26 0 -63.5 13.5t-54.5 13.5q-33 0 -44 -47h-65q14 72 38 105.5t66 33.5q26 0 63.5 -13.5t54.5 -13.5q37 0 46 47z" />
    <glyph glyph-name="adieresis" unicode="&#xe4;" horiz-adv-x="508" 
d="M465 0h-152l-10 47q-23 -24 -60 -41t-77 -17q-67 0 -108.5 37t-41.5 102q0 166 276 214v12q0 25 -9.5 37.5t-35.5 12.5q-48 0 -92 -51l-116 70q37 49 93 80.5t123 31.5q202 0 202 -155v-309q0 -26 8 -71zM187 160q0 -47 38 -47q26 0 66 34v97q-50 -9 -77 -33t-27 -51z
M84 730h135v-141h-135v141zM292 730h136v-141h-136v141z" />
    <glyph glyph-name="aring" unicode="&#xe5;" horiz-adv-x="508" 
d="M465 0h-152l-10 47q-23 -24 -60 -41t-77 -17q-67 0 -108.5 37t-41.5 102q0 166 276 214v12q0 25 -9.5 37.5t-35.5 12.5q-48 0 -92 -51l-116 70q37 49 93 80.5t123 31.5q202 0 202 -155v-309q0 -26 8 -71zM187 160q0 -47 38 -47q26 0 66 34v97q-50 -9 -77 -33t-27 -51z
M256 839q57 0 97 -40.5t40 -97.5q0 -58 -39.5 -97.5t-97.5 -39.5t-96.5 39.5t-38.5 97.5q0 57 38.5 97.5t96.5 40.5zM256 754q-22 0 -36 -15t-14 -38q0 -22 14 -36t36 -14t36.5 14.5t14.5 35.5q0 22 -15 37.5t-36 15.5z" />
    <glyph glyph-name="ae" unicode="&#xe6;" horiz-adv-x="798" 
d="M549 123q27 0 45 12.5t38 41.5l128 -74q-28 -53 -85 -83.5t-136 -30.5q-52 0 -86.5 18t-64.5 57q-50 -40 -96.5 -57.5t-120.5 -17.5q-68 0 -111.5 37.5t-43.5 101.5q0 81 75 134t217 75v14q0 24 -15 38.5t-41 14.5q-53 0 -97 -51l-116 70q37 48 95.5 80t125.5 32
q95 0 138 -50q52 50 140 50q114 0 174.5 -72.5t60.5 -205.5v-35h-298q4 -99 74 -99zM187 160q0 -24 12.5 -35.5t30.5 -11.5q34 0 78 34v90q-55 -5 -88 -27.5t-33 -49.5zM606 330v10q0 31 -15.5 51t-47.5 20q-28 0 -47 -22.5t-19 -58.5h129z" />
    <glyph glyph-name="ccedilla" unicode="&#xe7;" horiz-adv-x="486" 
d="M479 390l-146 -53q-25 60 -64 60q-71 0 -71 -138q0 -131 71 -131q25 0 40 15.5t29 47.5l143 -63q-25 -63 -79.5 -100.5t-127.5 -38.5v-27h2q61 0 90.5 -24.5t29.5 -78.5q0 -101 -135 -101q-55 0 -136 22v80q80 -24 128 -24q23 0 32 7.5t9 25.5q0 22 -50 22q-21 0 -32 -1
v104q-90 17 -137.5 87.5t-47.5 189.5q0 122 66 193t181 71q73 0 127.5 -38.5t77.5 -106.5z" />
    <glyph glyph-name="egrave" unicode="&#xe8;" horiz-adv-x="521" 
d="M272 123q26 0 44.5 12.5t38.5 41.5l128 -74q-28 -53 -85 -83.5t-136 -30.5q-107 0 -171 73t-64 200t63.5 200t170.5 73q114 0 174.5 -72.5t60.5 -205.5v-35h-298q4 -99 74 -99zM329 330v10q0 31 -15.5 51t-47.5 20q-28 0 -47 -22.5t-19 -58.5h129zM105 761h158l91 -187
h-84z" />
    <glyph glyph-name="eacute" unicode="&#xe9;" horiz-adv-x="521" 
d="M272 123q26 0 44.5 12.5t38.5 41.5l128 -74q-28 -53 -85 -83.5t-136 -30.5q-107 0 -171 73t-64 200t63.5 200t170.5 73q114 0 174.5 -72.5t60.5 -205.5v-35h-298q4 -99 74 -99zM329 330v10q0 31 -15.5 51t-47.5 20q-28 0 -47 -22.5t-19 -58.5h129zM267 761h157l-165 -187
h-84z" />
    <glyph glyph-name="ecircumflex" unicode="&#xea;" horiz-adv-x="521" 
d="M272 123q26 0 44.5 12.5t38.5 41.5l128 -74q-28 -53 -85 -83.5t-136 -30.5q-107 0 -171 73t-64 200t63.5 200t170.5 73q114 0 174.5 -72.5t60.5 -205.5v-35h-298q4 -99 74 -99zM329 330v10q0 31 -15.5 51t-47.5 20q-28 0 -47 -22.5t-19 -58.5h129zM195 761h140l96 -187
h-83l-83 95l-85 -95h-81z" />
    <glyph glyph-name="edieresis" unicode="&#xeb;" horiz-adv-x="521" 
d="M272 123q26 0 44.5 12.5t38.5 41.5l128 -74q-28 -53 -85 -83.5t-136 -30.5q-107 0 -171 73t-64 200t63.5 200t170.5 73q114 0 174.5 -72.5t60.5 -205.5v-35h-298q4 -99 74 -99zM329 330v10q0 31 -15.5 51t-47.5 20q-28 0 -47 -22.5t-19 -58.5h129zM93 730h135v-141h-135
v141zM301 730h136v-141h-136v141z" />
    <glyph glyph-name="igrave" unicode="&#xec;" horiz-adv-x="276" 
d="M55 524h166v-524h-166v524zM-22 761h158l91 -187h-84z" />
    <glyph glyph-name="iacute" unicode="&#xed;" horiz-adv-x="276" 
d="M55 524h166v-524h-166v524zM140 761h157l-165 -187h-84z" />
    <glyph glyph-name="icircumflex" unicode="&#xee;" horiz-adv-x="276" 
d="M55 524h166v-524h-166v524zM68 761h140l96 -187h-83l-83 95l-85 -95h-81z" />
    <glyph glyph-name="idieresis" unicode="&#xef;" horiz-adv-x="276" 
d="M55 524h166v-524h-166v524zM-34 730h135v-141h-135v141zM174 730h136v-141h-136v141z" />
    <glyph glyph-name="eth" unicode="&#xf0;" horiz-adv-x="513" 
d="M287 481q-24 41 -62 74l-105 -60l-40 67l81 46q-35 26 -74 43l42 89q63 -22 136 -66l113 66l42 -70l-88 -51q154 -136 154 -376q0 -119 -62 -186.5t-171 -67.5q-102 0 -164 68t-62 183q0 114 60 184t149 70q33 0 51 -13zM256 368q-35 0 -48.5 -30.5t-13.5 -97.5
q0 -121 62 -121q33 0 47 29.5t14 94.5q0 66 -13.5 95.5t-47.5 29.5z" />
    <glyph glyph-name="ntilde" unicode="&#xf1;" horiz-adv-x="563" 
d="M511 344v-344h-166v322q0 38 -7.5 53.5t-29.5 15.5q-48 0 -87 -37v-354h-166v524h155v-53q45 33 79 48.5t77 15.5q78 0 111.5 -45t33.5 -146zM386 753h65q-13 -72 -37.5 -105.5t-68.5 -33.5q-26 0 -63.5 13.5t-54.5 13.5q-33 0 -44 -47h-65q14 72 38 105.5t66 33.5
q26 0 63.5 -13.5t54.5 -13.5q37 0 46 47z" />
    <glyph glyph-name="ograve" unicode="&#xf2;" horiz-adv-x="532" 
d="M266 535q111 0 175 -72t64 -200t-64 -201t-175 -73t-175 72.5t-64 200.5t64 200.5t175 72.5zM266 401q-37 0 -53 -34t-16 -105q0 -139 69 -139q37 0 53 34t16 106q0 138 -69 138zM106 761h158l91 -187h-84z" />
    <glyph glyph-name="oacute" unicode="&#xf3;" horiz-adv-x="532" 
d="M266 535q111 0 175 -72t64 -200t-64 -201t-175 -73t-175 72.5t-64 200.5t64 200.5t175 72.5zM266 401q-37 0 -53 -34t-16 -105q0 -139 69 -139q37 0 53 34t16 106q0 138 -69 138zM268 761h157l-165 -187h-84z" />
    <glyph glyph-name="ocircumflex" unicode="&#xf4;" horiz-adv-x="532" 
d="M266 535q111 0 175 -72t64 -200t-64 -201t-175 -73t-175 72.5t-64 200.5t64 200.5t175 72.5zM266 401q-37 0 -53 -34t-16 -105q0 -139 69 -139q37 0 53 34t16 106q0 138 -69 138zM196 761h140l96 -187h-83l-83 95l-85 -95h-81z" />
    <glyph glyph-name="otilde" unicode="&#xf5;" horiz-adv-x="532" 
d="M266 535q111 0 175 -72t64 -200t-64 -201t-175 -73t-175 72.5t-64 200.5t64 200.5t175 72.5zM266 401q-37 0 -53 -34t-16 -105q0 -139 69 -139q37 0 53 34t16 106q0 138 -69 138zM368 753h65q-13 -72 -37.5 -105.5t-68.5 -33.5q-26 0 -63.5 13.5t-54.5 13.5
q-33 0 -44 -47h-65q14 72 38 105.5t66 33.5q26 0 63.5 -13.5t54.5 -13.5q37 0 46 47z" />
    <glyph glyph-name="odieresis" unicode="&#xf6;" horiz-adv-x="532" 
d="M266 535q111 0 175 -72t64 -200t-64 -201t-175 -73t-175 72.5t-64 200.5t64 200.5t175 72.5zM266 401q-37 0 -53 -34t-16 -105q0 -139 69 -139q37 0 53 34t16 106q0 138 -69 138zM94 730h135v-141h-135v141zM302 730h136v-141h-136v141z" />
    <glyph glyph-name="divide" unicode="&#xf7;" horiz-adv-x="833" 
d="M709 359v-120h-585v120h585zM334 514q0 35 24.5 59.5t58.5 24.5q35 0 59.5 -25t24.5 -59t-24.5 -58.5t-59.5 -24.5t-59 24.5t-24 58.5zM334 81q0 35 24.5 59.5t58.5 24.5q35 0 59.5 -24.5t24.5 -59.5q0 -34 -24.5 -58.5t-59.5 -24.5t-59 24t-24 59z" />
    <glyph glyph-name="oslash" unicode="&#xf8;" horiz-adv-x="532" 
d="M266 535q56 0 100 -19l41 74l62 -37l-42 -76q78 -73 78 -214q0 -128 -64 -201t-175 -73q-51 0 -100 18l-46 -84l-63 39l47 85q-77 74 -77 215q0 128 64 200.5t175 72.5zM335 263q0 17 -2 45l-98 -177q11 -8 31 -8q37 0 53 34t16 106zM266 401q-37 0 -53 -34t-16 -105
q0 -32 2 -45l98 175q-13 9 -31 9z" />
    <glyph glyph-name="ugrave" unicode="&#xf9;" horiz-adv-x="562" 
d="M51 524h166v-319q0 -42 8.5 -57t31.5 -15q20 0 45 11t39 26v354h166v-524h-155v53q-43 -33 -77 -48.5t-76 -15.5q-80 0 -114 44.5t-34 145.5v345zM125 761h158l91 -187h-84z" />
    <glyph glyph-name="uacute" unicode="&#xfa;" horiz-adv-x="562" 
d="M51 524h166v-319q0 -42 8.5 -57t31.5 -15q20 0 45 11t39 26v354h166v-524h-155v53q-43 -33 -77 -48.5t-76 -15.5q-80 0 -114 44.5t-34 145.5v345zM287 761h157l-165 -187h-84z" />
    <glyph glyph-name="ucircumflex" unicode="&#xfb;" horiz-adv-x="562" 
d="M51 524h166v-319q0 -42 8.5 -57t31.5 -15q20 0 45 11t39 26v354h166v-524h-155v53q-43 -33 -77 -48.5t-76 -15.5q-80 0 -114 44.5t-34 145.5v345zM215 761h140l96 -187h-83l-83 95l-85 -95h-81z" />
    <glyph glyph-name="udieresis" unicode="&#xfc;" horiz-adv-x="562" 
d="M51 524h166v-319q0 -42 8.5 -57t31.5 -15q20 0 45 11t39 26v354h166v-524h-155v53q-43 -33 -77 -48.5t-76 -15.5q-80 0 -114 44.5t-34 145.5v345zM113 730h135v-141h-135v141zM321 730h136v-141h-136v141z" />
    <glyph glyph-name="yacute" unicode="&#xfd;" horiz-adv-x="526" 
d="M113 -56q50 0 68 72l-182 508h177l73 -252q11 -42 17 -76q5 29 19 79l69 249h173l-161 -464q-18 -52 -28.5 -79t-27 -61t-32 -50t-39.5 -32.5t-54 -22t-70 -5.5q-33 0 -66 11v131q38 -8 64 -8zM265 761h157l-165 -187h-84z" />
    <glyph glyph-name="thorn" unicode="&#xfe;" horiz-adv-x="556" 
d="M221 370v-227q25 -14 61 -14q77 0 77 139q0 59 -20 91.5t-53 32.5q-41 0 -65 -22zM55 -190v920h166v-242q33 27 57 37t64 10q78 0 132.5 -70t54.5 -200q0 -123 -65.5 -198.5t-143.5 -75.5q-61 0 -99 36v-217h-166z" />
    <glyph glyph-name="ydieresis" unicode="&#xff;" horiz-adv-x="526" 
d="M113 -56q50 0 68 72l-182 508h177l73 -252q11 -42 17 -76q5 29 19 79l69 249h173l-161 -464q-18 -52 -28.5 -79t-27 -61t-32 -50t-39.5 -32.5t-54 -22t-70 -5.5q-33 0 -66 11v131q38 -8 64 -8zM91 730h135v-141h-135v141zM299 730h136v-141h-136v141z" />
    <glyph glyph-name="Amacron" unicode="&#x100;" horiz-adv-x="639" 
d="M204 730h229l216 -730h-190l-29 110h-232l-33 -110h-175zM318 551l-77 -290h149q-51 197 -72 290zM167 909h304v-92h-304v92z" />
    <glyph glyph-name="amacron" unicode="&#x101;" horiz-adv-x="508" 
d="M465 0h-152l-10 47q-23 -24 -60 -41t-77 -17q-67 0 -108.5 37t-41.5 102q0 166 276 214v12q0 25 -9.5 37.5t-35.5 12.5q-48 0 -92 -51l-116 70q37 49 93 80.5t123 31.5q202 0 202 -155v-309q0 -26 8 -71zM187 160q0 -47 38 -47q26 0 66 34v97q-50 -9 -77 -33t-27 -51z
M104 709h304v-92h-304v92z" />
    <glyph glyph-name="Abreve" unicode="&#x102;" horiz-adv-x="639" 
d="M204 730h229l216 -730h-190l-29 110h-232l-33 -110h-175zM318 551l-77 -290h149q-51 197 -72 290zM158 948h77q3 -37 23 -52.5t62 -15.5t60.5 15t21.5 53h78q-5 -83 -44 -121.5t-116 -38.5q-152 0 -162 160z" />
    <glyph glyph-name="abreve" unicode="&#x103;" horiz-adv-x="508" 
d="M465 0h-152l-10 47q-23 -24 -60 -41t-77 -17q-67 0 -108.5 37t-41.5 102q0 166 276 214v12q0 25 -9.5 37.5t-35.5 12.5q-48 0 -92 -51l-116 70q37 49 93 80.5t123 31.5q202 0 202 -155v-309q0 -26 8 -71zM187 160q0 -47 38 -47q26 0 66 34v97q-50 -9 -77 -33t-27 -51z
M94 748h77q3 -37 23 -52.5t62 -15.5t60.5 15t21.5 53h78q-5 -83 -44 -121.5t-116 -38.5q-152 0 -162 160z" />
    <glyph glyph-name="Aogonek" unicode="&#x104;" horiz-adv-x="639" 
d="M593 0h-134l-29 110h-232l-33 -110h-175l214 730h229l216 -730q-58 -41 -58 -92q0 -17 9 -27.5t25 -10.5h59v-103h-64q-59 0 -90.5 25.5t-31.5 72.5q0 71 95 135zM318 551l-77 -290h149q-51 197 -72 290z" />
    <glyph glyph-name="aogonek" unicode="&#x105;" horiz-adv-x="508" 
d="M409 0h-96l-10 47q-23 -24 -60 -41t-77 -17q-67 0 -108.5 37t-41.5 102q0 166 276 214v12q0 25 -9.5 37.5t-35.5 12.5q-48 0 -92 -51l-116 70q37 49 93 80.5t123 31.5q202 0 202 -155v-309q0 -26 8 -71q-58 -41 -58 -92q0 -17 9 -27.5t25 -10.5h59v-103h-64
q-59 0 -90.5 25.5t-31.5 72.5q0 71 95 135zM187 160q0 -47 38 -47q26 0 66 34v97q-50 -9 -77 -33t-27 -51z" />
    <glyph glyph-name="Cacute" unicode="&#x106;" horiz-adv-x="606" 
d="M591 548l-170 -41q-30 74 -87 74q-61 0 -84 -51.5t-23 -172.5q0 -111 21.5 -157.5t82.5 -46.5q37 0 65 21t41 54l171 -51q-25 -84 -98.5 -136.5t-180.5 -52.5q-296 0 -296 370q0 185 81.5 282t234.5 97q93 0 158 -53t84 -136zM320 966h157l-165 -187h-84z" />
    <glyph glyph-name="cacute" unicode="&#x107;" horiz-adv-x="486" 
d="M479 390l-146 -53q-25 60 -64 60q-71 0 -71 -138q0 -131 71 -131q25 0 40 15.5t29 47.5l143 -63q-25 -64 -80 -101.5t-130 -37.5q-117 0 -180.5 72.5t-63.5 209.5q0 122 66 193t181 71q73 0 127.5 -38.5t77.5 -106.5zM255 761h157l-165 -187h-84z" />
    <glyph glyph-name="Ccircumflex" unicode="&#x108;" horiz-adv-x="606" 
d="M591 548l-170 -41q-30 74 -87 74q-61 0 -84 -51.5t-23 -172.5q0 -111 21.5 -157.5t82.5 -46.5q37 0 65 21t41 54l171 -51q-25 -84 -98.5 -136.5t-180.5 -52.5q-296 0 -296 370q0 185 81.5 282t234.5 97q93 0 158 -53t84 -136zM253 966h140l96 -187h-83l-83 95l-85 -95
h-81z" />
    <glyph glyph-name="ccircumflex" unicode="&#x109;" horiz-adv-x="486" 
d="M479 390l-146 -53q-25 60 -64 60q-71 0 -71 -138q0 -131 71 -131q25 0 40 15.5t29 47.5l143 -63q-25 -64 -80 -101.5t-130 -37.5q-117 0 -180.5 72.5t-63.5 209.5q0 122 66 193t181 71q73 0 127.5 -38.5t77.5 -106.5zM184 761h140l96 -187h-83l-83 95l-85 -95h-81z" />
    <glyph glyph-name="Cdotaccent" unicode="&#x10a;" horiz-adv-x="606" 
d="M591 548l-170 -41q-30 74 -87 74q-61 0 -84 -51.5t-23 -172.5q0 -111 21.5 -157.5t82.5 -46.5q37 0 65 21t41 54l171 -51q-25 -84 -98.5 -136.5t-180.5 -52.5q-296 0 -296 370q0 185 81.5 282t234.5 97q93 0 158 -53t84 -136zM238 935h166v-141h-166v141z" />
    <glyph glyph-name="cdotaccent" unicode="&#x10b;" horiz-adv-x="486" 
d="M479 390l-146 -53q-25 60 -64 60q-71 0 -71 -138q0 -131 71 -131q25 0 40 15.5t29 47.5l143 -63q-25 -64 -80 -101.5t-130 -37.5q-117 0 -180.5 72.5t-63.5 209.5q0 122 66 193t181 71q73 0 127.5 -38.5t77.5 -106.5zM170 730h166v-141h-166v141z" />
    <glyph glyph-name="Ccaron" unicode="&#x10c;" horiz-adv-x="606" 
d="M591 548l-170 -41q-30 74 -87 74q-61 0 -84 -51.5t-23 -172.5q0 -111 21.5 -157.5t82.5 -46.5q37 0 65 21t41 54l171 -51q-25 -84 -98.5 -136.5t-180.5 -52.5q-296 0 -296 370q0 185 81.5 282t234.5 97q93 0 158 -53t84 -136zM157 966h81l85 -94l83 94h83l-96 -187h-140z
" />
    <glyph glyph-name="ccaron" unicode="&#x10d;" horiz-adv-x="486" 
d="M479 390l-146 -53q-25 60 -64 60q-71 0 -71 -138q0 -131 71 -131q25 0 40 15.5t29 47.5l143 -63q-25 -64 -80 -101.5t-130 -37.5q-117 0 -180.5 72.5t-63.5 209.5q0 122 66 193t181 71q73 0 127.5 -38.5t77.5 -106.5zM87 761h81l85 -94l83 94h83l-96 -187h-140z" />
    <glyph glyph-name="Dcaron" unicode="&#x10e;" horiz-adv-x="695" 
d="M67 730h261q162 0 247.5 -92t85.5 -268q0 -370 -328 -370h-266v730zM254 566v-408h81q74 0 104 50.5t30 161.5q0 196 -145 196h-70zM181 966h81l85 -94l83 94h83l-96 -187h-140z" />
    <glyph glyph-name="dcaron" unicode="&#x10f;" horiz-adv-x="723" 
d="M337 730h164v-648q0 -38 8 -82h-152q-6 25 -9 47q-56 -58 -136 -58q-75 0 -130 73.5t-55 197.5q0 122 66 198.5t142 76.5q53 0 102 -41v236zM335 385q-35 10 -50 10q-40 0 -64 -36.5t-24 -101.5q0 -60 20 -92.5t53 -32.5q41 0 65 22v231zM549 729h169v-153l-81 -145h-74
l51 148h-65v150z" />
    <glyph glyph-name="Dcroat" unicode="&#x110;" horiz-adv-x="694" 
d="M74 730h261q162 0 247.5 -92t85.5 -268q0 -370 -328 -370h-266v323h-68v98h68v309zM261 566v-145h112v-98h-112v-165h81q74 0 104 50.5t30 161.5q0 196 -145 196h-70z" />
    <glyph glyph-name="dcroat" unicode="&#x111;" horiz-adv-x="566" 
d="M205 654h132v76h164v-76h73v-94h-73v-478q0 -38 8 -82h-152q-6 25 -9 47q-56 -58 -136 -58q-75 0 -130 70t-55 187q0 115 66 188t142 73q53 0 102 -41v94h-132v94zM335 357q-35 10 -50 10q-40 0 -64 -33.5t-24 -90.5q0 -53 20.5 -82t52.5 -29q41 0 65 22v203z" />
    <glyph glyph-name="Emacron" unicode="&#x112;" horiz-adv-x="604" 
d="M67 730h492v-154h-305v-123h223v-150h-223v-139h319v-164h-506v730zM150 909h304v-92h-304v92z" />
    <glyph glyph-name="emacron" unicode="&#x113;" horiz-adv-x="521" 
d="M272 123q26 0 44.5 12.5t38.5 41.5l128 -74q-28 -53 -85 -83.5t-136 -30.5q-107 0 -171 73t-64 200t63.5 200t170.5 73q114 0 174.5 -72.5t60.5 -205.5v-35h-298q4 -99 74 -99zM329 330v10q0 31 -15.5 51t-47.5 20q-28 0 -47 -22.5t-19 -58.5h129zM113 709h304v-92h-304
v92z" />
    <glyph glyph-name="Edotaccent" unicode="&#x116;" horiz-adv-x="604" 
d="M67 730h492v-154h-305v-123h223v-150h-223v-139h319v-164h-506v730zM229 935h166v-141h-166v141z" />
    <glyph glyph-name="edotaccent" unicode="&#x117;" horiz-adv-x="521" 
d="M272 123q26 0 44.5 12.5t38.5 41.5l128 -74q-28 -53 -85 -83.5t-136 -30.5q-107 0 -171 73t-64 200t63.5 200t170.5 73q114 0 174.5 -72.5t60.5 -205.5v-35h-298q4 -99 74 -99zM329 330v10q0 31 -15.5 51t-47.5 20q-28 0 -47 -22.5t-19 -58.5h129zM180 730h166v-141h-166
v141z" />
    <glyph glyph-name="Eogonek" unicode="&#x118;" horiz-adv-x="604" 
d="M497 0h-430v730h492v-154h-305v-123h223v-150h-223v-139h319v-164h-20q-58 -41 -58 -92q0 -17 9 -27.5t25 -10.5h59v-103h-64q-59 0 -90.5 25.5t-31.5 72.5q0 71 95 135z" />
    <glyph glyph-name="eogonek" unicode="&#x119;" horiz-adv-x="521" 
d="M272 123q26 0 44.5 12.5t38.5 41.5l128 -74q-41 -78 -136 -103q-58 -41 -58 -92q0 -17 9 -27.5t25 -10.5h59v-103h-64q-59 0 -90.5 25.5t-31.5 72.5q0 65 79 125q-6 -1 -13 -1q-107 0 -171 73t-64 200t63.5 200t170.5 73q114 0 174.5 -72.5t60.5 -205.5v-35h-298
q4 -99 74 -99zM329 330v10q0 31 -15.5 51t-47.5 20q-28 0 -47 -22.5t-19 -58.5h129z" />
    <glyph glyph-name="Ecaron" unicode="&#x11a;" horiz-adv-x="604" 
d="M67 730h492v-154h-305v-123h223v-150h-223v-139h319v-164h-506v730zM136 966h81l85 -94l83 94h83l-96 -187h-140z" />
    <glyph glyph-name="ecaron" unicode="&#x11b;" horiz-adv-x="521" 
d="M272 123q26 0 44.5 12.5t38.5 41.5l128 -74q-28 -53 -85 -83.5t-136 -30.5q-107 0 -171 73t-64 200t63.5 200t170.5 73q114 0 174.5 -72.5t60.5 -205.5v-35h-298q4 -99 74 -99zM329 330v10q0 31 -15.5 51t-47.5 20q-28 0 -47 -22.5t-19 -58.5h129zM99 761h81l85 -94
l83 94h83l-96 -187h-140z" />
    <glyph glyph-name="Gcircumflex" unicode="&#x11c;" horiz-adv-x="675" 
d="M621 558l-185 -46q-20 69 -89 69q-121 0 -121 -211q0 -224 110 -224q44 0 69 24.5t40 71.5h-102v142h284v-384h-128l-11 91q-48 -103 -176 -103q-127 0 -202.5 100t-75.5 287q0 170 84 266t231 96q107 0 175 -47.5t97 -131.5zM271 966h140l96 -187h-83l-83 95l-85 -95
h-81z" />
    <glyph glyph-name="gcircumflex" unicode="&#x11d;" horiz-adv-x="517" 
d="M117 216q-32 16 -54 53.5t-22 84.5q0 81 58 131.5t148 50.5q86 0 135 -40q28 45 97 45l21 -1v-110q-12 3 -28 3q-23 0 -34 -5q21 -29 21 -89q0 -73 -55 -118.5t-151 -45.5q-33 0 -39 1q-28 -11 -28 -22q0 -20 87 -24q131 -5 180.5 -34.5t49.5 -112.5q0 -80 -66.5 -126.5
t-182.5 -46.5q-240 0 -240 134q0 35 22 55t72 33q-75 20 -75 83q0 28 22.5 55.5t61.5 45.5zM312 -9l-118 4q-22 -13 -22 -30q0 -42 64 -42q62 0 94 10t32 39q0 17 -50 19zM199 354q0 -29 15 -46t39 -17t39 18t15 47t-15 46t-39 17t-39 -18t-15 -47zM191 761h140l96 -187h-83
l-83 95l-85 -95h-81z" />
    <glyph glyph-name="Gbreve" unicode="&#x11e;" horiz-adv-x="675" 
d="M621 558l-185 -46q-20 69 -89 69q-121 0 -121 -211q0 -224 110 -224q44 0 69 24.5t40 71.5h-102v142h284v-384h-128l-11 91q-48 -103 -176 -103q-127 0 -202.5 100t-75.5 287q0 170 84 266t231 96q107 0 175 -47.5t97 -131.5zM179 948h77q3 -37 23 -52.5t62 -15.5
t60.5 15t21.5 53h78q-5 -83 -44 -121.5t-116 -38.5q-152 0 -162 160z" />
    <glyph glyph-name="gbreve" unicode="&#x11f;" horiz-adv-x="517" 
d="M117 216q-32 16 -54 53.5t-22 84.5q0 81 58 131.5t148 50.5q86 0 135 -40q28 45 97 45l21 -1v-110q-12 3 -28 3q-23 0 -34 -5q21 -29 21 -89q0 -73 -55 -118.5t-151 -45.5q-33 0 -39 1q-28 -11 -28 -22q0 -20 87 -24q131 -5 180.5 -34.5t49.5 -112.5q0 -80 -66.5 -126.5
t-182.5 -46.5q-240 0 -240 134q0 35 22 55t72 33q-75 20 -75 83q0 28 22.5 55.5t61.5 45.5zM312 -9l-118 4q-22 -13 -22 -30q0 -42 64 -42q62 0 94 10t32 39q0 17 -50 19zM199 354q0 -29 15 -46t39 -17t39 18t15 47t-15 46t-39 17t-39 -18t-15 -47zM100 748h77
q3 -37 23 -52.5t62 -15.5t60.5 15t21.5 53h78q-5 -83 -44 -121.5t-116 -38.5q-152 0 -162 160z" />
    <glyph glyph-name="Gdotaccent" unicode="&#x120;" horiz-adv-x="675" 
d="M621 558l-185 -46q-20 69 -89 69q-121 0 -121 -211q0 -224 110 -224q44 0 69 24.5t40 71.5h-102v142h284v-384h-128l-11 91q-48 -103 -176 -103q-127 0 -202.5 100t-75.5 287q0 170 84 266t231 96q107 0 175 -47.5t97 -131.5zM258 935h166v-141h-166v141z" />
    <glyph glyph-name="gdotaccent" unicode="&#x121;" horiz-adv-x="517" 
d="M117 216q-32 16 -54 53.5t-22 84.5q0 81 58 131.5t148 50.5q86 0 135 -40q28 45 97 45l21 -1v-110q-12 3 -28 3q-23 0 -34 -5q21 -29 21 -89q0 -73 -55 -118.5t-151 -45.5q-33 0 -39 1q-28 -11 -28 -22q0 -20 87 -24q131 -5 180.5 -34.5t49.5 -112.5q0 -80 -66.5 -126.5
t-182.5 -46.5q-240 0 -240 134q0 35 22 55t72 33q-75 20 -75 83q0 28 22.5 55.5t61.5 45.5zM312 -9l-118 4q-22 -13 -22 -30q0 -42 64 -42q62 0 94 10t32 39q0 17 -50 19zM199 354q0 -29 15 -46t39 -17t39 18t15 47t-15 46t-39 17t-39 -18t-15 -47zM178 730h166v-141h-166
v141z" />
    <glyph glyph-name="Gcommaaccent" unicode="&#x122;" horiz-adv-x="675" 
d="M621 558l-185 -46q-20 69 -89 69q-121 0 -121 -211q0 -224 110 -224q44 0 69 24.5t40 71.5h-102v142h284v-384h-128l-11 91q-48 -103 -176 -103q-127 0 -202.5 100t-75.5 287q0 170 84 266t231 96q107 0 175 -47.5t97 -131.5zM268 -71h169v-153l-81 -145h-74l51 148h-65
v150z" />
    <glyph glyph-name="gcommaaccent" unicode="&#x123;" horiz-adv-x="517" 
d="M117 216q-32 16 -54 53.5t-22 84.5q0 81 58 131.5t148 50.5q86 0 135 -40q28 45 97 45l21 -1v-110q-12 3 -28 3q-23 0 -34 -5q21 -29 21 -89q0 -73 -55 -118.5t-151 -45.5q-33 0 -39 1q-28 -11 -28 -22q0 -20 87 -24q131 -5 180.5 -34.5t49.5 -112.5q0 -80 -66.5 -126.5
t-182.5 -46.5q-240 0 -240 134q0 35 22 55t72 33q-75 20 -75 83q0 28 22.5 55.5t61.5 45.5zM312 -9l-118 4q-22 -13 -22 -30q0 -42 64 -42q62 0 94 10t32 39q0 17 -50 19zM199 354q0 -29 15 -46t39 -17t39 18t15 47t-15 46t-39 17t-39 -18t-15 -47zM345 620h-169v153l81 145
h74l-51 -148h65v-150z" />
    <glyph glyph-name="Hcircumflex" unicode="&#x124;" horiz-adv-x="711" 
d="M67 730h187v-273h203v273h187v-730h-187v296h-203v-296h-187v730zM285 966h140l96 -187h-83l-83 95l-85 -95h-81z" />
    <glyph glyph-name="hcircumflex" unicode="&#x125;" horiz-adv-x="562" 
d="M55 730h166v-252q77 57 145 57q78 0 111.5 -45t33.5 -146v-344h-166v323q0 40 -8 54t-32 14q-21 0 -45 -11t-39 -26v-354h-166v730zM68 961h140l96 -187h-83l-83 95l-85 -95h-81z" />
    <glyph glyph-name="Hbar" unicode="&#x126;" horiz-adv-x="725" 
d="M74 730h187v-89h203v89h187v-89h68v-98h-68v-543h-187v296h-203v-296h-187v543h-68v98h68v89zM261 457h203v86h-203v-86z" />
    <glyph glyph-name="hbar" unicode="&#x127;" horiz-adv-x="572" 
d="M361 560h-130v-110q77 57 145 57q78 0 111.5 -45t33.5 -146v-316h-166v295q0 40 -8 54t-32 14q-21 0 -45 -11t-39 -26v-326h-166v560h-73v94h73v76h166v-76h130v-94z" />
    <glyph glyph-name="Imacron" unicode="&#x12a;" horiz-adv-x="343" 
d="M77 730h189v-730h-189v730zM20 909h304v-92h-304v92z" />
    <glyph glyph-name="imacron" unicode="&#x12b;" horiz-adv-x="276" 
d="M55 524h166v-524h-166v524zM-14 709h304v-92h-304v92z" />
    <glyph glyph-name="Iogonek" unicode="&#x12e;" horiz-adv-x="343" 
d="M210 0h-133v730h189v-730q-58 -41 -58 -92q0 -17 9 -27.5t25 -10.5h59v-103h-64q-59 0 -90.5 25.5t-31.5 72.5q0 71 95 135z" />
    <glyph glyph-name="iogonek" unicode="&#x12f;" horiz-adv-x="276" 
d="M165 0h-110v524h166v-524q-58 -41 -58 -92q0 -17 9 -27.5t25 -10.5h59v-103h-64q-59 0 -90.5 25.5t-31.5 72.5q0 71 95 135zM55 730h166v-141h-166v141z" />
    <glyph glyph-name="Idotaccent" unicode="&#x130;" horiz-adv-x="343" 
d="M77 730h189v-730h-189v730zM89 935h166v-141h-166v141z" />
    <glyph glyph-name="dotlessi" unicode="&#x131;" horiz-adv-x="276" 
d="M55 524h166v-524h-166v524z" />
    <glyph glyph-name="IJ" unicode="&#x132;" horiz-adv-x="765" 
d="M77 730h189v-730h-189v730zM515 730h187v-505q0 -123 -52 -180t-170 -57q-60 0 -113.5 29t-82.5 80l132 100q9 -19 26 -36.5t33 -17.5q20 0 30 12.5t10 44.5v530z" />
    <glyph glyph-name="ij" unicode="&#x133;" horiz-adv-x="541" 
d="M55 730h166v-141h-166v141zM55 524h166v-524h-166v524zM320 524h166v-542q0 -85 -41 -128.5t-113 -43.5q-58 0 -97 11v127q21 -3 42 -3q26 0 34.5 11.5t8.5 45.5v522zM320 730h166v-141h-166v141z" />
    <glyph glyph-name="Jcircumflex" unicode="&#x134;" horiz-adv-x="456" 
d="M206 730h187v-505q0 -123 -52 -180t-170 -57q-60 0 -113.5 29t-82.5 80l132 100q9 -19 26 -36.5t33 -17.5q20 0 30 12.5t10 44.5v530zM232 966h140l96 -187h-83l-83 95l-85 -95h-81z" />
    <glyph glyph-name="jcircumflex" unicode="&#x135;" horiz-adv-x="287" 
d="M66 524h166v-542q0 -85 -41 -128.5t-113 -43.5q-58 0 -97 11v127q21 -3 42 -3q26 0 34.5 11.5t8.5 45.5v522zM70 761h140l96 -187h-83l-83 95l-85 -95h-81z" />
    <glyph glyph-name="Kcommaaccent" unicode="&#x136;" horiz-adv-x="696" 
d="M67 730h187v-295l197 295h225l-220 -281l238 -449h-219l-146 287l-75 -100v-187h-187v730zM270 -71h169v-153l-81 -145h-74l51 148h-65v150z" />
    <glyph glyph-name="kcommaaccent" unicode="&#x137;" horiz-adv-x="538" 
d="M55 730h166v-387l122 181h187l-163 -195l177 -329h-189l-98 193l-36 -48v-145h-166v730zM185 -71h169v-153l-81 -145h-74l51 148h-65v150z" />
    <glyph glyph-name="Lacute" unicode="&#x139;" horiz-adv-x="541" 
d="M67 730h188v-566h274v-164h-462v730zM271 966h157l-165 -187h-84z" />
    <glyph glyph-name="lacute" unicode="&#x13a;" horiz-adv-x="279" 
d="M55 730h169v-730h-169v730zM142 961h157l-165 -187h-84z" />
    <glyph glyph-name="Lcommaaccent" unicode="&#x13b;" horiz-adv-x="541" 
d="M67 730h188v-566h274v-164h-462v730zM146 -71h169v-153l-81 -145h-74l51 148h-65v150z" />
    <glyph glyph-name="lcommaaccent" unicode="&#x13c;" horiz-adv-x="279" 
d="M55 730h169v-730h-169v730zM55 -71h169v-153l-81 -145h-74l51 148h-65v150z" />
    <glyph glyph-name="Lcaron" unicode="&#x13d;" horiz-adv-x="541" 
d="M67 730h188v-566h274v-164h-462v730zM330 729h169v-153l-81 -145h-74l51 148h-65v150z" />
    <glyph glyph-name="lcaron" unicode="&#x13e;" horiz-adv-x="445" 
d="M55 730h169v-730h-169v730zM271 729h169v-153l-81 -145h-74l51 148h-65v150z" />
    <glyph glyph-name="Ldot" unicode="&#x13f;" horiz-adv-x="544" 
d="M67 730h188v-566h274v-164h-462v730zM330 492h166v-141h-166v141z" />
    <glyph glyph-name="ldot" unicode="&#x140;" horiz-adv-x="492" 
d="M55 730h169v-730h-169v730zM303 442h166v-141h-166v141z" />
    <glyph glyph-name="Lslash" unicode="&#x141;" horiz-adv-x="541" 
d="M67 730h187v-280l130 92v-114l-130 -91v-173h275v-164h-462v238l-60 -43v114l60 42v379z" />
    <glyph glyph-name="lslash" unicode="&#x142;" horiz-adv-x="292" 
d="M62 730h167v-257l49 36v-104l-49 -36v-369h-167v268l-48 -35v104l48 35v358z" />
    <glyph glyph-name="Nacute" unicode="&#x143;" horiz-adv-x="717" 
d="M67 730h180l179 -339q40 -74 50 -104q-4 25 -4 84v359h178v-730h-188l-164 301q-50 91 -58 122q4 -19 4 -92v-331h-177v730zM360 966h157l-165 -187h-84z" />
    <glyph glyph-name="nacute" unicode="&#x144;" horiz-adv-x="562" 
d="M511 344v-344h-166v322q0 38 -7.5 53.5t-29.5 15.5q-48 0 -87 -37v-354h-166v524h155v-53q45 33 79 48.5t77 15.5q78 0 111.5 -45t33.5 -146zM286 761h157l-165 -187h-84z" />
    <glyph glyph-name="Ncommaaccent" unicode="&#x145;" horiz-adv-x="717" 
d="M67 730h180l179 -339q40 -74 50 -104q-4 25 -4 84v359h178v-730h-188l-164 301q-50 91 -58 122q4 -19 4 -92v-331h-177v730zM274 -71h169v-153l-81 -145h-74l51 148h-65v150z" />
    <glyph glyph-name="ncommaaccent" unicode="&#x146;" horiz-adv-x="562" 
d="M511 344v-344h-166v322q0 38 -7.5 53.5t-29.5 15.5q-48 0 -87 -37v-354h-166v524h155v-53q45 33 79 48.5t77 15.5q78 0 111.5 -45t33.5 -146zM197 -71h169v-153l-81 -145h-74l51 148h-65v150z" />
    <glyph glyph-name="Ncaron" unicode="&#x147;" horiz-adv-x="717" 
d="M67 730h180l179 -339q40 -74 50 -104q-4 25 -4 84v359h178v-730h-188l-164 301q-50 91 -58 122q4 -19 4 -92v-331h-177v730zM192 966h81l85 -94l83 94h83l-96 -187h-140z" />
    <glyph glyph-name="ncaron" unicode="&#x148;" horiz-adv-x="562" 
d="M511 344v-344h-166v322q0 38 -7.5 53.5t-29.5 15.5q-48 0 -87 -37v-354h-166v524h155v-53q45 33 79 48.5t77 15.5q78 0 111.5 -45t33.5 -146zM118 761h81l85 -94l83 94h83l-96 -187h-140z" />
    <glyph glyph-name="Omacron" unicode="&#x14c;" horiz-adv-x="699" 
d="M350 737q150 0 232.5 -97.5t82.5 -277.5t-82.5 -277t-232.5 -97t-233 97t-83 277t82.5 277.5t233.5 97.5zM350 581q-66 0 -95 -54.5t-29 -164.5q0 -109 29 -161.5t95 -52.5t94.5 52t28.5 162q0 111 -29 165t-94 54zM197 909h304v-92h-304v92z" />
    <glyph glyph-name="omacron" unicode="&#x14d;" horiz-adv-x="532" 
d="M266 535q111 0 175 -72t64 -200t-64 -201t-175 -73t-175 72.5t-64 200.5t64 200.5t175 72.5zM266 401q-37 0 -53 -34t-16 -105q0 -139 69 -139q37 0 53 34t16 106q0 138 -69 138zM114 709h304v-92h-304v92z" />
    <glyph glyph-name="Obreve" unicode="&#x14e;" horiz-adv-x="699" 
d="M350 737q150 0 232.5 -97.5t82.5 -277.5t-82.5 -277t-232.5 -97t-233 97t-83 277t82.5 277.5t233.5 97.5zM350 581q-66 0 -95 -54.5t-29 -164.5q0 -109 29 -161.5t95 -52.5t94.5 52t28.5 162q0 111 -29 165t-94 54zM188 948h77q3 -37 23 -52.5t62 -15.5t60.5 15t21.5 53
h78q-5 -83 -44 -121.5t-116 -38.5q-152 0 -162 160z" />
    <glyph glyph-name="obreve" unicode="&#x14f;" horiz-adv-x="532" 
d="M266 535q111 0 175 -72t64 -200t-64 -201t-175 -73t-175 72.5t-64 200.5t64 200.5t175 72.5zM266 401q-37 0 -53 -34t-16 -105q0 -139 69 -139q37 0 53 34t16 106q0 138 -69 138zM105 748h77q3 -37 23 -52.5t62 -15.5t60.5 15t21.5 53h78q-5 -83 -44 -121.5t-116 -38.5
q-152 0 -162 160z" />
    <glyph glyph-name="Ohungarumlaut" unicode="&#x150;" horiz-adv-x="699" 
d="M350 737q150 0 232.5 -97.5t82.5 -277.5t-82.5 -277t-232.5 -97t-233 97t-83 277t82.5 277.5t233.5 97.5zM350 581q-66 0 -95 -54.5t-29 -164.5q0 -109 29 -161.5t95 -52.5t94.5 52t28.5 162q0 111 -29 165t-94 54zM265 966h142l-117 -187h-66zM436 966h149l-146 -187
h-72z" />
    <glyph glyph-name="ohungarumlaut" unicode="&#x151;" horiz-adv-x="532" 
d="M266 535q111 0 175 -72t64 -200t-64 -201t-175 -73t-175 72.5t-64 200.5t64 200.5t175 72.5zM266 401q-37 0 -53 -34t-16 -105q0 -139 69 -139q37 0 53 34t16 106q0 138 -69 138zM183 761h142l-117 -187h-66zM354 761h149l-146 -187h-72z" />
    <glyph glyph-name="OE" unicode="&#x152;" horiz-adv-x="972" 
d="M332 737q45 0 82.5 -21.5t55.5 -47.5v62h460v-154h-285v-123h203v-150h-203v-139h296v-164h-471v54q-56 -66 -138 -66q-136 0 -217 98t-81 276t80 276.5t218 98.5zM350 581q-66 0 -95 -54.5t-29 -164.5q0 -109 29 -161.5t95 -52.5q48 0 79 36t31 87v189q0 51 -31 86
t-79 35z" />
    <glyph glyph-name="oe" unicode="&#x153;" horiz-adv-x="832" 
d="M266 535q100 0 155 -75q55 75 151 75q114 0 174.5 -72.5t60.5 -205.5v-35h-298q4 -99 74 -99q27 0 45 12.5t38 41.5l128 -74q-28 -53 -85 -83.5t-136 -30.5q-98 0 -152 75q-55 -75 -155 -75q-111 0 -175 72.5t-64 200.5t64 200.5t175 72.5zM266 401q-37 0 -53 -34
t-16 -105q0 -139 69 -139q37 0 53 34t16 106q0 138 -69 138zM640 330v10q0 31 -15.5 51t-47.5 20q-28 0 -47 -22.5t-19 -58.5h129z" />
    <glyph glyph-name="Racute" unicode="&#x154;" horiz-adv-x="682" 
d="M67 730h280q285 0 285 -230q0 -68 -40.5 -121.5t-95.5 -69.5l166 -309h-219l-118 266h-71v-266h-187v730zM254 580v-164h88q94 0 94 83q0 81 -94 81h-88zM346 966h157l-165 -187h-84z" />
    <glyph glyph-name="racute" unicode="&#x155;" horiz-adv-x="352" 
d="M336 534v-175h-3q-81 0 -112 -23v-336h-166v524h156v-60q49 72 112 72q5 0 13 -2zM214 761h157l-165 -187h-84z" />
    <glyph glyph-name="Rcommaaccent" unicode="&#x156;" horiz-adv-x="682" 
d="M67 730h280q285 0 285 -230q0 -68 -40.5 -121.5t-95.5 -69.5l166 -309h-219l-118 266h-71v-266h-187v730zM254 580v-164h88q94 0 94 83q0 81 -94 81h-88zM264 -71h169v-153l-81 -145h-74l51 148h-65v150z" />
    <glyph glyph-name="rcommaaccent" unicode="&#x157;" horiz-adv-x="352" 
d="M336 534v-175h-3q-81 0 -112 -23v-336h-166v524h156v-60q49 72 112 72q5 0 13 -2zM97 -71h169v-153l-81 -145h-74l51 148h-65v150z" />
    <glyph glyph-name="Rcaron" unicode="&#x158;" horiz-adv-x="682" 
d="M67 730h280q285 0 285 -230q0 -68 -40.5 -121.5t-95.5 -69.5l166 -309h-219l-118 266h-71v-266h-187v730zM254 580v-164h88q94 0 94 83q0 81 -94 81h-88zM180 966h81l85 -94l83 94h83l-96 -187h-140z" />
    <glyph glyph-name="rcaron" unicode="&#x159;" horiz-adv-x="352" 
d="M336 534v-175h-3q-81 0 -112 -23v-336h-166v524h156v-60q49 72 112 72q5 0 13 -2zM18 761h81l85 -94l83 94h83l-96 -187h-140z" />
    <glyph glyph-name="Sacute" unicode="&#x15a;" horiz-adv-x="601" 
d="M565 585l-169 -61q-34 62 -100 62q-69 0 -69 -47q0 -25 32 -47t113 -53q102 -40 155.5 -93t53.5 -134q0 -111 -68.5 -167.5t-201.5 -56.5q-212 0 -294 153l165 79q20 -36 51.5 -58t67.5 -22q84 0 84 60q0 27 -29 45.5t-120 55.5q-97 39 -149.5 92.5t-52.5 139.5
q0 94 71.5 149t192.5 55q195 0 267 -152zM303 966h157l-165 -187h-84z" />
    <glyph glyph-name="sacute" unicode="&#x15b;" horiz-adv-x="442" 
d="M411 456l-103 -84q-41 41 -79 41q-40 0 -40 -27q0 -13 20 -26t72 -37q79 -35 109.5 -68t30.5 -104q0 -79 -57 -120.5t-145 -41.5q-126 0 -209 97l111 89q18 -24 44.5 -42t47.5 -18q46 0 46 30q0 26 -83 61q-144 59 -144 174q0 70 53 112.5t143 42.5q110 0 183 -79z
M227 761h157l-165 -187h-84z" />
    <glyph glyph-name="Scircumflex" unicode="&#x15c;" horiz-adv-x="601" 
d="M565 585l-169 -61q-34 62 -100 62q-69 0 -69 -47q0 -25 32 -47t113 -53q102 -40 155.5 -93t53.5 -134q0 -111 -68.5 -167.5t-201.5 -56.5q-212 0 -294 153l165 79q20 -36 51.5 -58t67.5 -22q84 0 84 60q0 27 -29 45.5t-120 55.5q-97 39 -149.5 92.5t-52.5 139.5
q0 94 71.5 149t192.5 55q195 0 267 -152zM231 966h140l96 -187h-83l-83 95l-85 -95h-81z" />
    <glyph glyph-name="scircumflex" unicode="&#x15d;" horiz-adv-x="442" 
d="M411 456l-103 -84q-41 41 -79 41q-40 0 -40 -27q0 -13 20 -26t72 -37q79 -35 109.5 -68t30.5 -104q0 -79 -57 -120.5t-145 -41.5q-126 0 -209 97l111 89q18 -24 44.5 -42t47.5 -18q46 0 46 30q0 26 -83 61q-144 59 -144 174q0 70 53 112.5t143 42.5q110 0 183 -79z
M154 761h140l96 -187h-83l-83 95l-85 -95h-81z" />
    <glyph glyph-name="Scedilla" unicode="&#x15e;" horiz-adv-x="601" 
d="M565 585l-169 -61q-34 62 -100 62q-69 0 -69 -47q0 -25 32 -47t113 -53q102 -40 155.5 -93t53.5 -134q0 -106 -63 -162t-185 -61v-27h2q61 0 90.5 -24.5t29.5 -78.5q0 -101 -135 -101q-55 0 -136 22v80q80 -24 128 -24q23 0 32 7.5t9 25.5q0 22 -50 22q-21 0 -32 -1v100
q-181 12 -254 151l165 79q20 -36 51.5 -58t67.5 -22q84 0 84 60q0 27 -29 45.5t-120 55.5q-97 39 -149.5 92.5t-52.5 139.5q0 94 71.5 149t192.5 55q195 0 267 -152z" />
    <glyph glyph-name="scedilla" unicode="&#x15f;" horiz-adv-x="442" 
d="M411 456l-103 -84q-41 41 -79 41q-40 0 -40 -27q0 -13 20 -26t72 -37q79 -35 109.5 -68t30.5 -104q0 -72 -46.5 -112.5t-121.5 -47.5v-29h2q61 0 90.5 -24.5t29.5 -78.5q0 -101 -135 -101q-55 0 -136 22v80q80 -24 128 -24q23 0 32 7.5t9 25.5q0 22 -50 22q-21 0 -32 -1
v100q-107 10 -181 96l111 89q18 -24 44.5 -42t47.5 -18q46 0 46 30q0 26 -83 61q-144 59 -144 174q0 70 53 112.5t143 42.5q110 0 183 -79z" />
    <glyph glyph-name="Scaron" unicode="&#x160;" horiz-adv-x="601" 
d="M565 585l-169 -61q-34 62 -100 62q-69 0 -69 -47q0 -25 32 -47t113 -53q102 -40 155.5 -93t53.5 -134q0 -111 -68.5 -167.5t-201.5 -56.5q-212 0 -294 153l165 79q20 -36 51.5 -58t67.5 -22q84 0 84 60q0 27 -29 45.5t-120 55.5q-97 39 -149.5 92.5t-52.5 139.5
q0 94 71.5 149t192.5 55q195 0 267 -152zM133 966h81l85 -94l83 94h83l-96 -187h-140z" />
    <glyph glyph-name="scaron" unicode="&#x161;" horiz-adv-x="442" 
d="M411 456l-103 -84q-41 41 -79 41q-40 0 -40 -27q0 -13 20 -26t72 -37q79 -35 109.5 -68t30.5 -104q0 -79 -57 -120.5t-145 -41.5q-126 0 -209 97l111 89q18 -24 44.5 -42t47.5 -18q46 0 46 30q0 26 -83 61q-144 59 -144 174q0 70 53 112.5t143 42.5q110 0 183 -79z
M55 761h81l85 -94l83 94h83l-96 -187h-140z" />
    <glyph glyph-name="Tcommaaccent" unicode="&#x162;" horiz-adv-x="558" 
d="M12 730h534v-161h-173v-569h-188v569h-173v161zM194 -71h169v-153l-81 -145h-74l51 148h-65v150z" />
    <glyph glyph-name="tcommaaccent" unicode="&#x163;" horiz-adv-x="342" 
d="M70 692h167v-168h83v-117h-83v-225q0 -33 6.5 -42.5t32.5 -9.5q24 0 44 2v-133q-60 -10 -127 -10t-95 32.5t-28 106.5v279h-59v117h59v168zM84 -71h169v-153l-81 -145h-74l51 148h-65v150z" />
    <glyph glyph-name="Tcaron" unicode="&#x164;" horiz-adv-x="558" 
d="M12 730h534v-161h-173v-569h-188v569h-173v161zM113 966h81l85 -94l83 94h83l-96 -187h-140z" />
    <glyph glyph-name="tcaron" unicode="&#x165;" horiz-adv-x="447" 
d="M70 692h167v-168h83v-117h-83v-225q0 -33 6.5 -42.5t32.5 -9.5q24 0 44 2v-133q-60 -10 -127 -10t-95 32.5t-28 106.5v279h-59v117h59v168zM282 849h169v-153l-81 -145h-74l51 148h-65v150z" />
    <glyph glyph-name="Utilde" unicode="&#x168;" horiz-adv-x="686" 
d="M62 730h187v-481q0 -105 97 -105q50 0 72.5 24.5t22.5 80.5v481h183v-484q0 -121 -72 -189.5t-203 -68.5q-153 0 -220 71t-67 226v445zM444 953h65q-13 -72 -37.5 -105.5t-68.5 -33.5q-26 0 -63.5 13.5t-54.5 13.5q-33 0 -44 -47h-65q14 72 38 105.5t66 33.5
q26 0 63.5 -13.5t54.5 -13.5q37 0 46 47z" />
    <glyph glyph-name="utilde" unicode="&#x169;" horiz-adv-x="562" 
d="M51 524h166v-319q0 -42 8.5 -57t31.5 -15q20 0 45 11t39 26v354h166v-524h-155v53q-43 -33 -77 -48.5t-76 -15.5q-80 0 -114 44.5t-34 145.5v345zM387 753h65q-13 -72 -37.5 -105.5t-68.5 -33.5q-26 0 -63.5 13.5t-54.5 13.5q-33 0 -44 -47h-65q14 72 38 105.5t66 33.5
q26 0 63.5 -13.5t54.5 -13.5q37 0 46 47z" />
    <glyph glyph-name="Umacron" unicode="&#x16a;" horiz-adv-x="686" 
d="M62 730h187v-481q0 -105 97 -105q50 0 72.5 24.5t22.5 80.5v481h183v-484q0 -121 -72 -189.5t-203 -68.5q-153 0 -220 71t-67 226v445zM191 909h304v-92h-304v92z" />
    <glyph glyph-name="umacron" unicode="&#x16b;" horiz-adv-x="562" 
d="M51 524h166v-319q0 -42 8.5 -57t31.5 -15q20 0 45 11t39 26v354h166v-524h-155v53q-43 -33 -77 -48.5t-76 -15.5q-80 0 -114 44.5t-34 145.5v345zM133 709h304v-92h-304v92z" />
    <glyph glyph-name="Ubreve" unicode="&#x16c;" horiz-adv-x="686" 
d="M62 730h187v-481q0 -105 97 -105q50 0 72.5 24.5t22.5 80.5v481h183v-484q0 -121 -72 -189.5t-203 -68.5q-153 0 -220 71t-67 226v445zM182 948h77q3 -37 23 -52.5t62 -15.5t60.5 15t21.5 53h78q-5 -83 -44 -121.5t-116 -38.5q-152 0 -162 160z" />
    <glyph glyph-name="ubreve" unicode="&#x16d;" horiz-adv-x="562" 
d="M51 524h166v-319q0 -42 8.5 -57t31.5 -15q20 0 45 11t39 26v354h166v-524h-155v53q-43 -33 -77 -48.5t-76 -15.5q-80 0 -114 44.5t-34 145.5v345zM122 748h77q3 -37 23 -52.5t62 -15.5t60.5 15t21.5 53h78q-5 -83 -44 -121.5t-116 -38.5q-152 0 -162 160z" />
    <glyph glyph-name="Uring" unicode="&#x16e;" horiz-adv-x="686" 
d="M62 730h187v-481q0 -105 97 -105q50 0 72.5 24.5t22.5 80.5v481h183v-484q0 -121 -72 -189.5t-203 -68.5q-153 0 -220 71t-67 226v445zM342 973q57 0 97 -40.5t40 -97.5q0 -58 -39.5 -97.5t-97.5 -39.5t-96.5 39.5t-38.5 97.5q0 57 38.5 97.5t96.5 40.5zM342 888
q-22 0 -36 -15t-14 -38q0 -22 14 -36t36 -14t36.5 14.5t14.5 35.5q0 22 -15 37.5t-36 15.5z" />
    <glyph glyph-name="uring" unicode="&#x16f;" horiz-adv-x="562" 
d="M51 524h166v-319q0 -42 8.5 -57t31.5 -15q20 0 45 11t39 26v354h166v-524h-155v53q-43 -33 -77 -48.5t-76 -15.5q-80 0 -114 44.5t-34 145.5v345zM284 839q57 0 97 -40.5t40 -97.5q0 -58 -39.5 -97.5t-97.5 -39.5t-96.5 39.5t-38.5 97.5q0 57 38.5 97.5t96.5 40.5z
M284 754q-22 0 -36 -15t-14 -38q0 -22 14 -36t36 -14t36.5 14.5t14.5 35.5q0 22 -15 37.5t-36 15.5z" />
    <glyph glyph-name="Uhungarumlaut" unicode="&#x170;" horiz-adv-x="686" 
d="M62 730h187v-481q0 -105 97 -105q50 0 72.5 24.5t22.5 80.5v481h183v-484q0 -121 -72 -189.5t-203 -68.5q-153 0 -220 71t-67 226v445zM258 966h142l-117 -187h-66zM429 966h149l-146 -187h-72z" />
    <glyph glyph-name="uhungarumlaut" unicode="&#x171;" horiz-adv-x="562" 
d="M51 524h166v-319q0 -42 8.5 -57t31.5 -15q20 0 45 11t39 26v354h166v-524h-155v53q-43 -33 -77 -48.5t-76 -15.5q-80 0 -114 44.5t-34 145.5v345zM194 761h142l-117 -187h-66zM365 761h149l-146 -187h-72z" />
    <glyph glyph-name="Uogonek" unicode="&#x172;" horiz-adv-x="686" 
d="M62 730h187v-481q0 -105 97 -105q50 0 72.5 24.5t22.5 80.5v481h183v-484q0 -96 -46 -160t-131 -86q-58 -41 -58 -92q0 -17 9 -27.5t25 -10.5h59v-103h-64q-59 0 -90.5 25.5t-31.5 72.5q0 67 78 124q-8 -1 -25 -1q-153 0 -220 71t-67 226v445z" />
    <glyph glyph-name="uogonek" unicode="&#x173;" horiz-adv-x="562" 
d="M451 0h-99v53q-43 -33 -77 -48.5t-76 -15.5q-80 0 -114 44.5t-34 145.5v345h166v-319q0 -42 8.5 -57t31.5 -15q20 0 45 11t39 26v354h166v-524q-58 -41 -58 -92q0 -17 9 -27.5t25 -10.5h59v-103h-64q-59 0 -90.5 25.5t-31.5 72.5q0 71 95 135z" />
    <glyph glyph-name="Ydieresis" unicode="&#x178;" horiz-adv-x="607" 
d="M-11 730h197l126 -288l123 288h183l-221 -460v-270h-187v269zM136 930h135v-141h-135v141zM344 930h136v-141h-136v141z" />
    <glyph glyph-name="Zacute" unicode="&#x179;" horiz-adv-x="604" 
d="M41 730h521v-154l-315 -410h326v-166h-546v160l303 409h-289v161zM306 966h157l-165 -187h-84z" />
    <glyph glyph-name="zacute" unicode="&#x17a;" horiz-adv-x="464" 
d="M31 524h405v-123l-209 -263h212v-138h-421v119l215 270h-202v135zM233 761h157l-165 -187h-84z" />
    <glyph glyph-name="Zdotaccent" unicode="&#x17b;" horiz-adv-x="604" 
d="M41 730h521v-154l-315 -410h326v-166h-546v160l303 409h-289v161zM221 935h166v-141h-166v141z" />
    <glyph glyph-name="zdotaccent" unicode="&#x17c;" horiz-adv-x="464" 
d="M31 524h405v-123l-209 -263h212v-138h-421v119l215 270h-202v135zM149 730h166v-141h-166v141z" />
    <glyph glyph-name="Zcaron" unicode="&#x17d;" horiz-adv-x="604" 
d="M41 730h521v-154l-315 -410h326v-166h-546v160l303 409h-289v161zM138 966h81l85 -94l83 94h83l-96 -187h-140z" />
    <glyph glyph-name="zcaron" unicode="&#x17e;" horiz-adv-x="464" 
d="M31 524h405v-123l-209 -263h212v-138h-421v119l215 270h-202v135zM66 761h81l85 -94l83 94h83l-96 -187h-140z" />
    <glyph glyph-name="florin" unicode="&#x192;" horiz-adv-x="609" 
d="M127 350v117h105l14 71q22 114 62.5 157.5t127.5 43.5q33 0 93 -15l-20 -129q-20 9 -53 9q-29 0 -44 -85l-10 -52h87v-117h-109l-64 -339q-22 -114 -62.5 -157.5t-127.5 -43.5q-33 0 -93 15l20 129q20 -9 53 -9q29 0 44 85l61 320h-84z" />
    <glyph glyph-name="Icaron" unicode="&#x1cf;" horiz-adv-x="364" 
d="M77 730h189v-730h-189v730zM4 966h81l85 -94l83 94h83l-96 -187h-140z" />
    <glyph glyph-name="icaron" unicode="&#x1d0;" horiz-adv-x="264" 
d="M55 524h166v-524h-166v524zM-27 761h81l85 -94l83 94h83l-96 -187h-140z" />
    <glyph glyph-name="Gcaron" unicode="&#x1e6;" horiz-adv-x="675" 
d="M621 558l-185 -46q-20 69 -89 69q-121 0 -121 -211q0 -224 110 -224q44 0 69 24.5t40 71.5h-102v142h284v-384h-128l-11 91q-48 -103 -176 -103q-127 0 -202.5 100t-75.5 287q0 170 84 266t231 96q107 0 175 -47.5t97 -131.5zM175 966h81l85 -94l83 94h83l-96 -187h-140z
" />
    <glyph glyph-name="gcaron" unicode="&#x1e7;" horiz-adv-x="517" 
d="M117 216q-32 16 -54 53.5t-22 84.5q0 81 58 131.5t148 50.5q86 0 135 -40q28 45 97 45l21 -1v-110q-12 3 -28 3q-23 0 -34 -5q21 -29 21 -89q0 -73 -55 -118.5t-151 -45.5q-33 0 -39 1q-28 -11 -28 -22q0 -20 87 -24q131 -5 180.5 -34.5t49.5 -112.5q0 -80 -66.5 -126.5
t-182.5 -46.5q-240 0 -240 134q0 35 22 55t72 33q-75 20 -75 83q0 28 22.5 55.5t61.5 45.5zM312 -9l-118 4q-22 -13 -22 -30q0 -42 64 -42q62 0 94 10t32 39q0 17 -50 19zM199 354q0 -29 15 -46t39 -17t39 18t15 47t-15 46t-39 17t-39 -18t-15 -47zM95 761h81l85 -94l83 94
h83l-96 -187h-140z" />
    <glyph glyph-name="AEacute" unicode="&#x1fc;" horiz-adv-x="914" 
d="M296 730h575v-154h-284v-123h204v-150h-204v-138h296v-165h-471v103h-195l-38 -103h-194zM405 570l-120 -309h127v309h-7zM585 966h157l-165 -187h-84z" />
    <glyph glyph-name="aeacute" unicode="&#x1fd;" horiz-adv-x="798" 
d="M549 123q27 0 45 12.5t38 41.5l128 -74q-28 -53 -85 -83.5t-136 -30.5q-52 0 -86.5 18t-64.5 57q-50 -40 -96.5 -57.5t-120.5 -17.5q-68 0 -111.5 37.5t-43.5 101.5q0 81 75 134t217 75v14q0 24 -15 38.5t-41 14.5q-53 0 -97 -51l-116 70q37 48 95.5 80t125.5 32
q95 0 138 -50q52 50 140 50q114 0 174.5 -72.5t60.5 -205.5v-35h-298q4 -99 74 -99zM187 160q0 -24 12.5 -35.5t30.5 -11.5q34 0 78 34v90q-55 -5 -88 -27.5t-33 -49.5zM606 330v10q0 31 -15.5 51t-47.5 20q-28 0 -47 -22.5t-19 -58.5h129zM399 761h157l-165 -187h-84z" />
    <glyph glyph-name="Scommaaccent" unicode="&#x218;" horiz-adv-x="601" 
d="M565 585l-169 -61q-34 62 -100 62q-69 0 -69 -47q0 -25 32 -47t113 -53q102 -40 155.5 -93t53.5 -134q0 -111 -68.5 -167.5t-201.5 -56.5q-212 0 -294 153l165 79q20 -36 51.5 -58t67.5 -22q84 0 84 60q0 27 -29 45.5t-120 55.5q-97 39 -149.5 92.5t-52.5 139.5
q0 94 71.5 149t192.5 55q195 0 267 -152zM216 -71h169v-153l-81 -145h-74l51 148h-65v150z" />
    <glyph glyph-name="scommaaccent" unicode="&#x219;" horiz-adv-x="442" 
d="M411 456l-103 -84q-41 41 -79 41q-40 0 -40 -27q0 -13 20 -26t72 -37q79 -35 109.5 -68t30.5 -104q0 -79 -57 -120.5t-145 -41.5q-126 0 -209 97l111 89q18 -24 44.5 -42t47.5 -18q46 0 46 30q0 26 -83 61q-144 59 -144 174q0 70 53 112.5t143 42.5q110 0 183 -79z
M143 -71h169v-153l-81 -145h-74l51 148h-65v150z" />
    <glyph glyph-name="uni021A" unicode="&#x21a;" horiz-adv-x="558" 
d="M12 730h534v-161h-173v-569h-188v569h-173v161zM222 0h62v-38h2q61 0 90.5 -24.5t29.5 -78.5q0 -101 -135 -101q-55 0 -136 22v80q80 -24 128 -24q23 0 32 7.5t9 25.5q0 22 -50 22q-21 0 -32 -1v110z" />
    <glyph glyph-name="uni021B" unicode="&#x21b;" horiz-adv-x="342" 
d="M70 692h167v-168h83v-117h-83v-225q0 -33 6.5 -42.5t32.5 -9.5q24 0 44 2v-133q-54 -9 -120 -10v-27h2q61 0 90.5 -24.5t29.5 -78.5q0 -101 -135 -101q-55 0 -136 22v80q80 -24 128 -24q23 0 32 7.5t9 25.5q0 22 -50 22q-21 0 -32 -1v106q-37 11 -52.5 42.5t-15.5 89.5
v279h-59v117h59v168z" />
    <glyph glyph-name="dotlessj" unicode="&#x237;" horiz-adv-x="287" 
d="M66 524h166v-542q0 -85 -41 -128.5t-113 -43.5q-58 0 -97 11v127q21 -3 42 -3q26 0 34.5 11.5t8.5 45.5v522z" />
    <glyph glyph-name="afii57929" unicode="&#x2bc;" 
d="M166 729h169v-153l-81 -145h-74l51 148h-65v150z" />
    <glyph glyph-name="circumflex" unicode="&#x2c6;" 
d="M180 761h140l96 -187h-83l-83 95l-85 -95h-81z" />
    <glyph glyph-name="caron" unicode="&#x2c7;" 
d="M84 761h81l85 -94l83 94h83l-96 -187h-140z" />
    <glyph glyph-name="uni02C9" unicode="&#x2c9;" 
d="M98 709h304v-92h-304v92z" />
    <glyph glyph-name="breve" unicode="&#x2d8;" 
d="M88 748h77q3 -37 23 -52.5t62 -15.5t60.5 15t21.5 53h78q-5 -83 -44 -121.5t-116 -38.5q-152 0 -162 160z" />
    <glyph glyph-name="dotaccent" unicode="&#x2d9;" 
d="M167 730h166v-141h-166v141z" />
    <glyph glyph-name="ring" unicode="&#x2da;" 
d="M250 839q57 0 97 -40.5t40 -97.5q0 -58 -39.5 -97.5t-97.5 -39.5t-96.5 39.5t-38.5 97.5q0 57 38.5 97.5t96.5 40.5zM250 754q-22 0 -36 -15t-14 -38q0 -22 14 -36t36 -14t36.5 14.5t14.5 35.5q0 22 -15 37.5t-36 15.5z" />
    <glyph glyph-name="ogonek" unicode="&#x2db;" 
d="M268 0h56q-58 -41 -58 -92q0 -17 9 -27.5t25 -10.5h59v-103h-64q-59 0 -90.5 25.5t-31.5 72.5q0 71 95 135z" />
    <glyph glyph-name="tilde" unicode="&#x2dc;" 
d="M352 753h65q-13 -72 -37.5 -105.5t-68.5 -33.5q-26 0 -63.5 13.5t-54.5 13.5q-33 0 -44 -47h-65q14 72 38 105.5t66 33.5q26 0 63.5 -13.5t54.5 -13.5q37 0 46 47z" />
    <glyph glyph-name="hungarumlaut" unicode="&#x2dd;" 
d="M167 761h142l-117 -187h-66zM338 761h149l-146 -187h-72z" />
    <glyph glyph-name="uni037E" unicode="&#x37e;" horiz-adv-x="334" 
d="M66 481h171v-166h-171v166zM66 173h171v-173l-80 -150h-76l50 153h-65v170z" />
    <glyph glyph-name="tonos" unicode="&#x384;" 
d="M215 771h157l-78 -197h-90z" />
    <glyph glyph-name="dieresistonos" unicode="&#x385;" 
d="M20 722h127v-133h-127v133zM352 722h128v-133h-128v133zM208 786h142l-88 -197h-74z" />
    <glyph glyph-name="Alphatonos" unicode="&#x386;" horiz-adv-x="678" 
d="M243 730h229l216 -730h-190l-29 110h-232l-33 -110h-175zM357 551l-77 -290h149q-51 197 -72 290zM-3 730h157l-78 -197h-90z" />
    <glyph glyph-name="anoteleia" unicode="&#x387;" horiz-adv-x="304" 
d="M51 372q0 42 29.5 71.5t71.5 29.5t71.5 -29.5t29.5 -71.5t-29.5 -71.5t-71.5 -29.5t-71.5 29.5t-29.5 71.5z" />
    <glyph glyph-name="Epsilontonos" unicode="&#x388;" horiz-adv-x="704" 
d="M167 730h492v-154h-305v-123h223v-150h-223v-139h319v-164h-506v730zM-38 730h157l-78 -197h-90z" />
    <glyph glyph-name="Etatonos" unicode="&#x389;" horiz-adv-x="811" 
d="M167 730h187v-273h203v273h187v-730h-187v296h-203v-296h-187v730zM-38 730h157l-78 -197h-90z" />
    <glyph glyph-name="Iotatonos" unicode="&#x38a;" horiz-adv-x="443" 
d="M177 730h189v-730h-189v730zM-38 730h157l-78 -197h-90z" />
    <glyph glyph-name="Omicrontonos" unicode="&#x38c;" horiz-adv-x="785" 
d="M436 737q150 0 232.5 -97.5t82.5 -277.5t-82.5 -277t-232.5 -97t-233 97t-83 277t82.5 277.5t233.5 97.5zM436 581q-66 0 -95 -54.5t-29 -164.5q0 -109 29 -161.5t95 -52.5t94.5 52t28.5 162q0 111 -29 165t-94 54zM-11 730h157l-78 -197h-90z" />
    <glyph glyph-name="Upsilontonos" unicode="&#x38e;" horiz-adv-x="727" 
d="M109 730h197l126 -288l123 288h183l-221 -460v-270h-187v269zM-65 730h157l-78 -197h-90z" />
    <glyph glyph-name="Omegatonos" unicode="&#x38f;" horiz-adv-x="770" 
d="M129 0v162h110q-118 73 -118 231q0 155 88.5 249.5t219.5 94.5q141 0 223.5 -93t82.5 -251q0 -167 -117 -231h109v-162h-263v160q36 24 58.5 83t22.5 144q0 194 -117 194q-58 0 -87.5 -51.5t-29.5 -142.5q0 -85 22.5 -144t58.5 -83v-160h-263zM-11 730h157l-78 -197h-90z
" />
    <glyph glyph-name="iotadieresistonos" unicode="&#x390;" horiz-adv-x="323" 
d="M70 524h167v-344q0 -30 6 -40t24 -10l25 1v-133q-45 -9 -99 -9q-67 0 -95 32.5t-28 106.5v396zM-68 722h127v-133h-127v133zM264 722h128v-133h-128v133zM120 786h142l-88 -197h-74z" />
    <glyph glyph-name="Alpha" unicode="&#x391;" horiz-adv-x="639" 
d="M204 730h229l216 -730h-190l-29 110h-232l-33 -110h-175zM318 551l-77 -290h149q-51 197 -72 290z" />
    <glyph glyph-name="Beta" unicode="&#x392;" horiz-adv-x="658" 
d="M67 730h275q140 0 207 -48.5t67 -155.5q0 -49 -32.5 -88t-87.5 -57q61 -18 98.5 -61t37.5 -109q0 -107 -67.5 -159t-212.5 -52h-285v730zM247 589v-143h87q96 0 96 71q0 72 -95 72h-88zM247 311v-172h93q102 0 102 87q0 44 -22.5 64.5t-71.5 20.5h-101z" />
    <glyph glyph-name="Gamma" unicode="&#x393;" horiz-adv-x="541" 
d="M255 0h-188v730h462v-164h-274v-566z" />
    <glyph glyph-name="uni0394" unicode="&#x394;" horiz-adv-x="639" 
d="M204 730h228l217 -730h-659zM317 553l-108 -395h207z" />
    <glyph glyph-name="Epsilon" unicode="&#x395;" horiz-adv-x="604" 
d="M67 730h492v-154h-305v-123h223v-150h-223v-139h319v-164h-506v730z" />
    <glyph glyph-name="Zeta" unicode="&#x396;" horiz-adv-x="604" 
d="M41 730h521v-154l-315 -410h326v-166h-546v160l303 409h-289v161z" />
    <glyph glyph-name="Eta" unicode="&#x397;" horiz-adv-x="711" 
d="M67 730h187v-273h203v273h187v-730h-187v296h-203v-296h-187v730z" />
    <glyph glyph-name="Theta" unicode="&#x398;" horiz-adv-x="699" 
d="M350 737q150 0 232.5 -97.5t82.5 -277.5t-82.5 -277t-232.5 -97t-233 97t-83 277t82.5 277.5t233.5 97.5zM350 581q-66 0 -95 -54.5t-29 -164.5q0 -109 29 -161.5t95 -52.5t94.5 52t28.5 162q0 111 -29 165t-94 54zM274 442v-150h150v150h-150z" />
    <glyph glyph-name="Iota" unicode="&#x399;" horiz-adv-x="343" 
d="M77 730h189v-730h-189v730z" />
    <glyph glyph-name="Kappa" unicode="&#x39a;" horiz-adv-x="696" 
d="M67 730h187v-295l197 295h225l-220 -281l238 -449h-219l-146 287l-75 -100v-187h-187v730z" />
    <glyph glyph-name="Lambda" unicode="&#x39b;" horiz-adv-x="639" 
d="M647 0h-196l-133 559l-143 -559h-183l209 730h236z" />
    <glyph glyph-name="Mu" unicode="&#x39c;" horiz-adv-x="878" 
d="M812 0h-175v538q-12 -50 -34 -133l-107 -405h-122l-99 405l-34 133v-538h-175v730h273l66 -265q30 -125 34 -192h1q12 103 36 189l74 268h262v-730z" />
    <glyph glyph-name="Nu" unicode="&#x39d;" horiz-adv-x="717" 
d="M67 730h180l179 -339q40 -74 50 -104q-4 25 -4 84v359h178v-730h-188l-164 301q-50 91 -58 122q4 -19 4 -92v-331h-177v730z" />
    <glyph glyph-name="Xi" unicode="&#x39e;" horiz-adv-x="648" 
d="M41 576v154h566v-154h-192v-123h143v-150h-143v-139h202v-164h-586v164h202v139h-143v150h143v123h-192z" />
    <glyph glyph-name="Omicron" unicode="&#x39f;" horiz-adv-x="699" 
d="M350 737q150 0 232.5 -97.5t82.5 -277.5t-82.5 -277t-232.5 -97t-233 97t-83 277t82.5 277.5t233.5 97.5zM350 581q-66 0 -95 -54.5t-29 -164.5q0 -109 29 -161.5t95 -52.5t94.5 52t28.5 162q0 111 -29 165t-94 54z" />
    <glyph glyph-name="Pi" unicode="&#x3a0;" horiz-adv-x="711" 
d="M67 730h577v-730h-187v569h-203v-569h-187v730z" />
    <glyph glyph-name="Rho" unicode="&#x3a1;" horiz-adv-x="649" 
d="M635 508q0 -116 -69 -177t-203 -61h-109v-270h-187v730h300q129 0 198.5 -56.5t69.5 -165.5zM254 579v-155h74q111 0 111 73q0 47 -26.5 64.5t-79.5 17.5h-79z" />
    <glyph glyph-name="Sigma" unicode="&#x3a3;" horiz-adv-x="604" 
d="M38 730h519v-154h-300l152 -202l-161 -210h323v-164h-542v161l163 213l-154 205v151z" />
    <glyph glyph-name="Tau" unicode="&#x3a4;" horiz-adv-x="558" 
d="M12 730h534v-161h-173v-569h-188v569h-173v161z" />
    <glyph glyph-name="Upsilon" unicode="&#x3a5;" horiz-adv-x="607" 
d="M-11 730h197l126 -288l123 288h183l-221 -460v-270h-187v269z" />
    <glyph glyph-name="Phi" unicode="&#x3a6;" horiz-adv-x="833" 
d="M322 730h179v-68q138 0 221.5 -83t83.5 -207q0 -125 -84 -212t-221 -87v-73h-179v73q-135 0 -215 85t-80 210t79.5 209t215.5 85v68zM501 514v-293q50 0 80 41t30 108q0 66 -29.5 105t-80.5 39zM212 370q0 -67 30 -108t80 -41v293q-51 -1 -80.5 -39.5t-29.5 -104.5z" />
    <glyph glyph-name="Chi" unicode="&#x3a7;" horiz-adv-x="656" 
d="M18 730h218l100 -198l98 198h204l-200 -353l214 -377h-218l-115 226l-109 -226h-206l213 376z" />
    <glyph glyph-name="Psi" unicode="&#x3a8;" horiz-adv-x="874" 
d="M344 730h186v-406q58 0 84 25t26 80v301h187v-283q0 -279 -297 -279v-168h-186v168q-160 0 -228.5 70.5t-68.5 226.5v265h187v-301q0 -52 25 -78.5t85 -26.5v406z" />
    <glyph glyph-name="Omega" unicode="&#x3a9;" horiz-adv-x="684" 
d="M43 0v162h110q-118 73 -118 231q0 155 88.5 249.5t219.5 94.5q141 0 223.5 -93t82.5 -251q0 -167 -117 -231h109v-162h-263v160q36 24 58.5 83t22.5 144q0 194 -117 194q-58 0 -87.5 -51.5t-29.5 -142.5q0 -85 22.5 -144t58.5 -83v-160h-263z" />
    <glyph glyph-name="Iotadieresis" unicode="&#x3aa;" horiz-adv-x="363" 
d="M87 730h189v-730h-189v730zM9 930h135v-141h-135v141zM217 930h136v-141h-136v141z" />
    <glyph glyph-name="Upsilondieresis" unicode="&#x3ab;" horiz-adv-x="607" 
d="M-11 730h197l126 -288l123 288h183l-221 -460v-270h-187v269zM136 930h135v-141h-135v141zM344 930h136v-141h-136v141z" />
    <glyph glyph-name="alphatonos" unicode="&#x3ac;" horiz-adv-x="556" 
d="M348 47q-56 -58 -136 -58q-75 0 -130 74t-55 204q0 117 66.5 192.5t142.5 75.5q25 0 47 -9t33 -17.5t33 -28.5q1 13 10 44h150q-8 -46 -8 -83v-359q0 -38 8 -82h-152q-6 25 -9 47zM335 379q-28 16 -50 16q-40 0 -64 -36.5t-24 -101.5q0 -60 20 -92.5t53 -32.5q41 0 65 22
v225zM236 771h157l-78 -197h-90z" />
    <glyph glyph-name="epsilontonos" unicode="&#x3ad;" horiz-adv-x="491" 
d="M482 455l-97 -99q-20 22 -50 36.5t-56 14.5q-25 0 -47 -11.5t-22 -30.5t24.5 -30.5t58.5 -11.5h69v-108h-68q-35 0 -61 -13.5t-26 -36.5q0 -22 23 -35t51 -13q26 0 58.5 17t53.5 40l98 -99q-81 -86 -225 -86q-95 0 -162.5 38.5t-67.5 110.5q0 98 112 131
q-103 31 -103 120q0 67 67 106.5t159 39.5q137 0 211 -80zM225 771h157l-78 -197h-90z" />
    <glyph glyph-name="etatonos" unicode="&#x3ae;" horiz-adv-x="562" 
d="M511 344v-534h-166v512q0 38 -7.5 53.5t-29.5 15.5q-48 0 -87 -37v-354h-166v524h155v-53q45 33 79 48.5t77 15.5q78 0 111.5 -45t33.5 -146zM247 771h157l-78 -197h-90z" />
    <glyph glyph-name="iotatonos" unicode="&#x3af;" horiz-adv-x="323" 
d="M70 524h167v-344q0 -30 6 -40t24 -10l25 1v-133q-45 -9 -99 -9q-67 0 -95 32.5t-28 106.5v396zM98 771h157l-78 -197h-90z" />
    <glyph glyph-name="upsilondieresistonos" unicode="&#x3b0;" horiz-adv-x="558" 
d="M51 524h166v-329q0 -72 62 -72t62 72v329h166v-325q0 -99 -62 -154.5t-166 -55.5t-166 55.5t-62 154.5v325zM49 722h127v-133h-127v133zM381 722h128v-133h-128v133zM237 786h142l-88 -197h-74z" />
    <glyph glyph-name="alpha" unicode="&#x3b1;" horiz-adv-x="556" 
d="M348 47q-56 -58 -136 -58q-75 0 -130 74t-55 204q0 117 66.5 192.5t142.5 75.5q25 0 47 -9t33 -17.5t33 -28.5q1 13 10 44h150q-8 -46 -8 -83v-359q0 -38 8 -82h-152q-6 25 -9 47zM335 379q-28 16 -50 16q-40 0 -64 -36.5t-24 -101.5q0 -60 20 -92.5t53 -32.5q41 0 65 22
v225z" />
    <glyph glyph-name="beta" unicode="&#x3b2;" horiz-adv-x="561" 
d="M404 399q63 -13 95.5 -60.5t32.5 -145.5q0 -97 -61.5 -149.5t-151.5 -52.5q-56 0 -98 33v-214h-166v693q0 115 55.5 176.5t156.5 61.5q229 0 229 -202q0 -116 -92 -140zM221 521v-383q29 -13 60 -13q32 0 56.5 19t24.5 70q0 58 -26 89t-73 31h-24v108h24q24 0 47 21.5
t23 61.5q0 85 -60 85q-52 0 -52 -89z" />
    <glyph glyph-name="gamma" unicode="&#x3b3;" horiz-adv-x="526" 
d="M-1 524h177l71 -258q12 -41 17 -90q4 44 18 90l73 258h172l-181 -524v-190h-166v190z" />
    <glyph glyph-name="delta" unicode="&#x3b4;" horiz-adv-x="517" 
d="M447 687l-76 -107q-45 33 -87 33q-44 0 -44 -30q0 -8 3 -15.5t10 -15t13 -13.5t17 -13l16.5 -10.5t16.5 -10t13 -7.5q76 -45 119.5 -103.5t43.5 -151.5q0 -119 -64 -186.5t-173 -67.5q-103 0 -166.5 68t-63.5 183q0 81 38 135.5t102 72.5q-84 59 -84 138q0 70 55 112.5
t145 42.5q96 0 166 -54zM257 377q-33 -15 -49 -45.5t-16 -91.5q0 -121 66 -121q65 0 65 124q0 100 -66 134z" />
    <glyph glyph-name="epsilon" unicode="&#x3b5;" horiz-adv-x="491" 
d="M482 455l-97 -99q-20 22 -50 36.5t-56 14.5q-25 0 -47 -11.5t-22 -30.5t24.5 -30.5t58.5 -11.5h69v-108h-68q-35 0 -61 -13.5t-26 -36.5q0 -22 23 -35t51 -13q26 0 58.5 17t53.5 40l98 -99q-81 -86 -225 -86q-95 0 -162.5 38.5t-67.5 110.5q0 98 112 131
q-103 31 -103 120q0 67 67 106.5t159 39.5q137 0 211 -80z" />
    <glyph glyph-name="zeta" unicode="&#x3b6;" horiz-adv-x="462" 
d="M46 730h405v-121q-248 -237 -248 -362q0 -46 25.5 -72t83.5 -52q79 -35 114.5 -70t35.5 -97q0 -27 -16 -63.5t-32 -59.5l-16 -23l-128 66q31 39 31 61q0 15 -18.5 29t-73.5 37q-37 16 -62.5 31.5t-54.5 42t-44.5 67t-15.5 92.5q0 91 64 178.5t174 180.5h-224v135z" />
    <glyph glyph-name="eta" unicode="&#x3b7;" horiz-adv-x="562" 
d="M511 344v-534h-166v512q0 38 -7.5 53.5t-29.5 15.5q-48 0 -87 -37v-354h-166v524h155v-53q45 33 79 48.5t77 15.5q78 0 111.5 -45t33.5 -146z" />
    <glyph glyph-name="theta" unicode="&#x3b8;" horiz-adv-x="578" 
d="M288 741q258 0 258 -376t-258 -376q-256 0 -256 376t256 376zM288 123q41 0 61.5 44t23.5 139h-171q6 -183 86 -183zM288 610q-80 0 -86 -180h171q-6 180 -85 180z" />
    <glyph glyph-name="iota" unicode="&#x3b9;" horiz-adv-x="323" 
d="M70 524h167v-344q0 -30 6 -40t24 -10l25 1v-133q-45 -9 -99 -9q-67 0 -95 32.5t-28 106.5v396z" />
    <glyph glyph-name="kappa" unicode="&#x3ba;" horiz-adv-x="538" 
d="M55 524h166v-181l122 181h187l-163 -195l177 -329h-189l-98 193l-36 -48v-145h-166v524z" />
    <glyph glyph-name="lambda" unicode="&#x3bb;" horiz-adv-x="526" 
d="M124 607q-22 0 -51 -6v131q27 9 84 9q39 0 67.5 -11.5t49 -29t40 -56t33 -76t34.5 -104.5l146 -464h-173l-73 249q-14 50 -19 79q-6 -34 -17 -76l-69 -252h-177l190 508q-13 55 -27 77t-38 22z" />
    <glyph glyph-name="mu" unicode="&#x3bc;" horiz-adv-x="567" 
d="M55 524h166v-289q0 -44 15.5 -73t44.5 -29q34 0 65 37v354h166v-524h-155v53q-42 -64 -84 -64q-34 0 -54 54v-233h-164v714z" />
    <glyph glyph-name="nu" unicode="&#x3bd;" horiz-adv-x="526" 
d="M-1 524h177l71 -258q12 -41 17 -90q4 44 18 90l73 258h172l-181 -524h-166z" />
    <glyph glyph-name="xi" unicode="&#x3be;" horiz-adv-x="485" 
d="M484 675l-78 -109q-60 47 -113 47q-35 0 -57.5 -21.5t-22.5 -55.5q0 -35 25 -54.5t71 -19.5h101v-132h-106q-45 0 -73 -25.5t-28 -67.5q0 -41 25 -64.5t84 -49.5q79 -35 114.5 -70t35.5 -97q0 -27 -16 -63.5t-32 -59.5l-16 -23l-128 66q31 39 31 61q0 15 -18.5 29
t-73.5 37q-177 75 -177 224q0 127 139 169q-123 37 -123 162q0 88 70 135.5t165 47.5q65 0 109.5 -16t91.5 -50z" />
    <glyph glyph-name="omicron" unicode="&#x3bf;" horiz-adv-x="532" 
d="M266 535q111 0 175 -72t64 -200t-64 -201t-175 -73t-175 72.5t-64 200.5t64 200.5t175 72.5zM266 401q-37 0 -53 -34t-16 -105q0 -139 69 -139q37 0 53 34t16 106q0 138 -69 138z" />
    <glyph glyph-name="pi" unicode="&#x3c0;" horiz-adv-x="582" 
d="M581 524v-135h-63v-389h-166v389h-123v-389h-166v389h-62v135h580z" />
    <glyph glyph-name="rho" unicode="&#x3c1;" horiz-adv-x="552" 
d="M217 143q25 -14 51 -14q39 0 63 37t24 102t-20 98.5t-53 33.5q-65 0 -65 -132v-125zM217 27v-217h-166v458q0 133 63.5 200t174.5 67q108 0 172 -71.5t64 -198.5q0 -123 -65.5 -198.5t-143.5 -75.5q-61 0 -99 36z" />
    <glyph glyph-name="sigma1" unicode="&#x3c2;" horiz-adv-x="486" 
d="M27 266q0 125 65 197t181 72q73 0 128 -38.5t78 -106.5l-146 -53q-25 60 -65 60q-70 0 -70 -140q0 -55 25 -81t84 -53q79 -35 114.5 -70t35.5 -97q0 -27 -16 -63.5t-32 -59.5l-16 -23l-128 66q31 39 31 61q0 15 -18.5 29t-73.5 37q-35 15 -62 33t-55.5 48t-44 76.5
t-15.5 105.5z" />
    <glyph glyph-name="sigma" unicode="&#x3c3;" horiz-adv-x="546" 
d="M284 524h233v-135h-86q34 -19 53.5 -60.5t19.5 -86.5q0 -111 -65 -182t-173 -71q-111 0 -175 72.5t-64 200.5q0 126 68.5 194t188.5 68zM271 391q-38 0 -56 -30t-18 -99q0 -139 69 -139q71 0 71 128q0 64 -18 102t-48 38z" />
    <glyph glyph-name="tau" unicode="&#x3c4;" horiz-adv-x="431" 
d="M2 524h409v-135h-123v-207q0 -33 6.5 -42.5t32.5 -9.5q24 0 44 2v-133q-60 -10 -127 -10t-95 32.5t-28 106.5v261h-119v135z" />
    <glyph glyph-name="upsilon" unicode="&#x3c5;" horiz-adv-x="558" 
d="M51 524h166v-329q0 -72 62 -72t62 72v329h166v-325q0 -99 -62 -154.5t-166 -55.5t-166 55.5t-62 154.5v325z" />
    <glyph glyph-name="phi" unicode="&#x3c6;" horiz-adv-x="805" 
d="M778 263q0 -125 -86 -198.5t-215 -73.5v-181h-162v181q-135 0 -211.5 67.5t-76.5 193.5q0 102 60 180.5t119 101.5q70 -99 72 -102q-29 -21 -55 -65t-26 -105q0 -67 32.5 -103t85.5 -36v401h160q125 0 214 -69.5t89 -191.5zM608 263q0 66 -37.5 99t-93.5 33v-272
q58 0 94.5 36.5t36.5 103.5z" />
    <glyph glyph-name="chi" unicode="&#x3c7;" horiz-adv-x="536" 
d="M9 524h202l65 -134l69 134h180l-157 -252l168 -272h-202l-73 143l-79 -143h-182l166 267z" />
    <glyph glyph-name="psi" unicode="&#x3c8;" horiz-adv-x="806" 
d="M485 -190h-164v179q-123 0 -196.5 68.5t-73.5 201.5v265h166v-289q0 -54 30 -83t74 -29v449h164v-449q44 0 74 29t30 83v289h166v-265q0 -133 -73.5 -201.5t-196.5 -68.5v-179z" />
    <glyph glyph-name="omega" unicode="&#x3c9;" horiz-adv-x="786" 
d="M314 344h158v-127q0 -91 58 -91t58 134q0 62 -29.5 111t-52.5 60l78 104q59 -25 116 -105.5t57 -188.5q0 -123 -57 -187.5t-167 -64.5q-93 0 -140 77q-47 -77 -138 -77q-110 0 -168 64.5t-58 187.5q0 108 57 188t116 105l79 -102q-23 -11 -53 -60.5t-30 -111.5
q0 -134 60 -134q56 0 56 91v127z" />
    <glyph glyph-name="iotadieresis" unicode="&#x3ca;" horiz-adv-x="323" 
d="M70 524h167v-344q0 -30 6 -40t24 -10l25 1v-133q-45 -9 -99 -9q-67 0 -95 32.5t-28 106.5v396zM-10 730h135v-141h-135v141zM198 730h136v-141h-136v141z" />
    <glyph glyph-name="upsilondieresis" unicode="&#x3cb;" horiz-adv-x="558" 
d="M51 524h166v-329q0 -72 62 -72t62 72v329h166v-325q0 -99 -62 -154.5t-166 -55.5t-166 55.5t-62 154.5v325zM107 730h135v-141h-135v141zM315 730h136v-141h-136v141z" />
    <glyph glyph-name="omicrontonos" unicode="&#x3cc;" horiz-adv-x="532" 
d="M266 535q111 0 175 -72t64 -200t-64 -201t-175 -73t-175 72.5t-64 200.5t64 200.5t175 72.5zM266 401q-37 0 -53 -34t-16 -105q0 -139 69 -139q37 0 53 34t16 106q0 138 -69 138zM221 771h157l-78 -197h-90z" />
    <glyph glyph-name="upsilontonos" unicode="&#x3cd;" horiz-adv-x="558" 
d="M51 524h166v-329q0 -72 62 -72t62 72v329h166v-325q0 -99 -62 -154.5t-166 -55.5t-166 55.5t-62 154.5v325zM234 771h157l-78 -197h-90z" />
    <glyph glyph-name="omegatonos" unicode="&#x3ce;" horiz-adv-x="786" 
d="M314 344h158v-127q0 -91 58 -91t58 134q0 62 -29.5 111t-52.5 60l78 104q59 -25 116 -105.5t57 -188.5q0 -123 -57 -187.5t-167 -64.5q-93 0 -140 77q-47 -77 -138 -77q-110 0 -168 64.5t-58 187.5q0 108 57 188t116 105l79 -102q-23 -11 -53 -60.5t-30 -111.5
q0 -134 60 -134q56 0 56 91v127zM345 771h157l-78 -197h-90z" />
    <glyph glyph-name="uni2010" unicode="&#x2010;" horiz-adv-x="322" 
d="M33 339h256v-141h-256v141z" />
    <glyph glyph-name="uni2011" unicode="&#x2011;" horiz-adv-x="322" 
d="M33 339h256v-141h-256v141z" />
    <glyph glyph-name="endash" unicode="&#x2013;" 
d="M0 317h500v-112h-500v112z" />
    <glyph glyph-name="emdash" unicode="&#x2014;" horiz-adv-x="1000" 
d="M0 317h1000v-112h-1000v112z" />
    <glyph glyph-name="afii00208" unicode="&#x2015;" horiz-adv-x="1000" 
d="M0 317h1000v-112h-1000v112z" />
    <glyph glyph-name="quoteleft" unicode="&#x2018;" horiz-adv-x="276" 
d="M224 399h-169v170l81 161h74l-51 -164h65v-167z" />
    <glyph glyph-name="quoteright" unicode="&#x2019;" horiz-adv-x="276" 
d="M52 730h169v-170l-81 -161h-74l51 164h-65v167z" />
    <glyph glyph-name="quotesinglbase" unicode="&#x201a;" horiz-adv-x="276" 
d="M52 171h169v-170l-81 -161h-74l51 164h-65v167z" />
    <glyph glyph-name="quotedblleft" unicode="&#x201c;" 
d="M449 399h-169v170l81 161h74l-51 -164h65v-167zM223 399h-169v170l81 161h74l-51 -164h65v-167z" />
    <glyph glyph-name="quotedblright" unicode="&#x201d;" 
d="M51 730h169v-170l-81 -161h-74l51 164h-65v167zM277 730h169v-170l-81 -161h-74l51 164h-65v167z" />
    <glyph glyph-name="quotedblbase" unicode="&#x201e;" 
d="M51 171h169v-170l-81 -161h-74l51 164h-65v167zM277 171h169v-170l-81 -161h-74l51 164h-65v167z" />
    <glyph glyph-name="dagger" unicode="&#x2020;" 
d="M179 730h142l-50 -214l172 49v-143l-173 56q13 -79 54 -173q-36 -126 -52 -416h-45q-14 294 -50 416q40 98 54 173l-175 -56v143l172 -49z" />
    <glyph glyph-name="daggerdbl" unicode="&#x2021;" 
d="M321 -114h-142l49 214l-172 -49v143l173 -56q-14 81 -52 170q41 100 54 170l-175 -56v143l172 -49l-49 214h142l-50 -214l172 49v-143l-173 56q12 -74 54 -170q-45 -109 -56 -170l175 56v-143l-172 49z" />
    <glyph glyph-name="bullet" unicode="&#x2022;" horiz-adv-x="590" 
d="M150 372q0 60 42.5 102t102.5 42q59 0 101.5 -42t42.5 -102q0 -59 -42.5 -102t-102.5 -43t-102 42.5t-42 102.5z" />
    <glyph glyph-name="ellipsis" unicode="&#x2026;" horiz-adv-x="1000" 
d="M79 173h172v-173h-172v173zM414 173h172v-173h-172v173zM749 173h172v-173h-172v173z" />
    <glyph glyph-name="perthousand" unicode="&#x2030;" horiz-adv-x="1386" 
d="M615 737h150l-425 -749h-150zM24 546q0 80 56 136.5t136 56.5t136.5 -56.5t56.5 -136.5t-56.5 -136t-136.5 -56t-136 56t-56 136zM153 546q0 -26 18.5 -44.5t44.5 -18.5t45 18.5t19 44.5t-19 45t-45 19t-44.5 -19t-18.5 -45zM547 180q0 80 56 136.5t136 56.5t136.5 -56.5
t56.5 -136.5t-56.5 -136t-136.5 -56t-136 56t-56 136zM676 180q0 -26 18.5 -44.5t44.5 -18.5t45 18.5t19 44.5t-19 45t-45 19t-44.5 -19t-18.5 -45zM977 180q0 80 56 136.5t136 56.5t136.5 -56.5t56.5 -136.5t-56.5 -136t-136.5 -56t-136 56t-56 136zM1106 180
q0 -26 18.5 -44.5t44.5 -18.5t45 18.5t19 44.5t-19 45t-45 19t-44.5 -19t-18.5 -45z" />
    <glyph glyph-name="guilsinglleft" unicode="&#x2039;" horiz-adv-x="303" 
d="M283 97h-143l-112 166l116 162h141l-119 -162z" />
    <glyph glyph-name="guilsinglright" unicode="&#x203a;" horiz-adv-x="303" 
d="M163 97h-143l117 166l-119 162h141l116 -162z" />
    <glyph glyph-name="fraction" unicode="&#x2044;" horiz-adv-x="167" 
d="M245 737h96l-419 -749h-96z" />
    <glyph glyph-name="Euro" unicode="&#x20ac;" horiz-adv-x="609" 
d="M590 568l-161 -41q-22 60 -77 60q-70 0 -86 -104h198l-21 -80h-184v-68h164l-20 -80h-139q16 -108 90 -108q31 0 50 17t35 50l163 -51q-24 -78 -91 -126.5t-162 -48.5q-232 0 -266 267h-71l16 80h51v68h-67l16 80h58q44 254 274 254q89 0 151 -44.5t79 -124.5z" />
    <glyph glyph-name="uni2117" unicode="&#x2117;" horiz-adv-x="833" 
d="M417 722q154 0 261 -110q102 -102 102 -252q0 -156 -107 -261q-107 -104 -256 -104q-72 0 -139.5 28.5t-119.5 81.5q-105 107 -105 255q0 151 109 258q107 104 255 104zM720 352q0 128 -88 217q-91 91 -214 91t-210 -87q-91 -91 -91 -213q0 -126 86 -211q91 -91 207 -91
q131 0 221 87q89 84 89 207zM292 165v400h125q160 0 160 -130q0 -128 -160 -128h-51v-142h-74zM366 370h55q80 0 80 66q0 65 -80 65h-55v-131z" />
    <glyph glyph-name="trademark" unicode="&#x2122;" horiz-adv-x="833" 
d="M328 714v-56h-82v-212h-69v212h-84v56h235zM481 714l61 -158l59 158h103v-268h-68v197l-73 -197h-42l-75 197v-197h-68v268h103z" />
    <glyph glyph-name="Ohm" unicode="&#x2126;" horiz-adv-x="684" 
d="M43 0v162h110q-118 73 -118 231q0 155 88.5 249.5t219.5 94.5q141 0 223.5 -93t82.5 -251q0 -167 -117 -231h109v-162h-263v160q36 24 58.5 83t22.5 144q0 194 -117 194q-58 0 -87.5 -51.5t-29.5 -142.5q0 -85 22.5 -144t58.5 -83v-160h-263z" />
    <glyph glyph-name="partialdiff" unicode="&#x2202;" horiz-adv-x="515" 
d="M83 592l18 147q73 -8 129 -24t106.5 -48t83 -79t51.5 -118t19 -164q0 -164 -56 -240.5t-182 -76.5q-99 0 -162 68t-63 176t59 177.5t146 69.5q64 0 109 -45q-5 60 -75.5 103.5t-182.5 53.5zM258 355q-60 0 -60 -122q0 -55 16.5 -87t46.5 -32q57 0 57 126q0 115 -60 115z
" />
    <glyph glyph-name="Delta" unicode="&#x2206;" horiz-adv-x="639" 
d="M204 730h228l217 -730h-659zM317 553l-108 -395h207z" />
    <glyph glyph-name="product" unicode="&#x220f;" horiz-adv-x="766" 
d="M18 784h730v-147h-56v-751h56v-144h-279v144h55v751h-282v-751h55v-144h-279v144h56v751h-56v147z" />
    <glyph glyph-name="summation" unicode="&#x2211;" horiz-adv-x="711" 
d="M655 782v-276h-147v133h-304l227 -361l-229 -391h316v130h147v-275h-639v141l232 395l-232 368v136h629z" />
    <glyph glyph-name="minus" unicode="&#x2212;" horiz-adv-x="833" 
d="M709 361v-124h-585v124h585z" />
    <glyph glyph-name="uni2219" unicode="&#x2219;" horiz-adv-x="304" 
d="M51 372q0 42 29.5 71.5t71.5 29.5t71.5 -29.5t29.5 -71.5t-29.5 -71.5t-71.5 -29.5t-71.5 29.5t-29.5 71.5z" />
    <glyph glyph-name="radical" unicode="&#x221a;" horiz-adv-x="754" 
d="M754 853v-109h-176l-216 -744h-189l-84 281h-89v109h200l64 -234h5l191 697h294z" />
    <glyph glyph-name="infinity" unicode="&#x221e;" horiz-adv-x="747" 
d="M375 260q-60 -106 -184 -106q-89 0 -140 53t-51 144q0 89 51 142t147 53q107 0 175 -105q64 107 181 107q80 0 136.5 -49t56.5 -150q0 -95 -53 -145.5t-143 -50.5q-105 0 -176 107zM432 351q52 -81 120 -81q29 0 50 24t21 55t-21.5 56.5t-52.5 25.5q-66 0 -117 -80z
M316 350q-50 78 -116 78q-30 0 -53 -24t-23 -55t22 -54t51 -23q67 0 119 78z" />
    <glyph glyph-name="integral" unicode="&#x222b;" horiz-adv-x="519" 
d="M341 538v-592q0 -92 -41.5 -145.5t-123.5 -53.5q-48 0 -109 16l16 130q29 -12 55 -12q24 0 32.5 21t8.5 86v592q0 92 41.5 145.5t123.5 53.5q48 0 109 -16l-16 -130q-29 12 -55 12q-24 0 -32.5 -21t-8.5 -86z" />
    <glyph glyph-name="approxequal" unicode="&#x2248;" horiz-adv-x="833" 
d="M747 391q-104 -70 -183 -70q-73 0 -152 33q-75 31 -140 31q-78 0 -185 -75v129q103 70 186 70q64 0 148 -32q83 -32 143 -32q80 0 183 75v-129zM747 156q-104 -70 -183 -70q-73 0 -152 33q-75 31 -140 31q-78 0 -185 -75v129q103 70 186 70q64 0 148 -32q83 -32 143 -32
q80 0 183 75v-129z" />
    <glyph glyph-name="notequal" unicode="&#x2260;" horiz-adv-x="833" 
d="M709 478v-123h-195l-68 -115h263v-120h-337l-71 -120h-129l71 120h-119v120h193l68 115h-261v123h333l74 118h129l-74 -118h123z" />
    <glyph glyph-name="lessequal" unicode="&#x2264;" horiz-adv-x="833" 
d="M704 554l-417 -143l417 -145v-124l-575 209v118l575 212v-127zM704 118v-118h-574v118h574z" />
    <glyph glyph-name="greaterequal" unicode="&#x2265;" horiz-adv-x="833" 
d="M704 118v-118h-574v118h574zM129 270l417 143l-417 145v124l575 -209v-118l-575 -212v127z" />
    <glyph glyph-name="dotmath" unicode="&#x22c5;" horiz-adv-x="304" 
d="M51 372q0 42 29.5 71.5t71.5 29.5t71.5 -29.5t29.5 -71.5t-29.5 -71.5t-71.5 -29.5t-71.5 29.5t-29.5 71.5z" />
    <glyph glyph-name="lozenge" unicode="&#x25ca;" horiz-adv-x="833" 
d="M417 725l314 -412l-314 -410l-314 410zM417 534l-169 -221l169 -220l169 220z" />
    <glyph glyph-name="commaaccent" unicode="&#xf6c3;" 
d="M165 -71h169v-153l-81 -145h-74l51 148h-65v150z" />
    <glyph glyph-name="apple" unicode="&#xf8ff;" horiz-adv-x="688" 
d="M495 711v-9q2 -60 -38 -109q-17 -21 -46.5 -40.5t-60.5 -19.5h-8q0 73 42 121q19 22 50 39.5t59 17.5h2zM642 470q-82 -56 -82 -143q0 -53 27.5 -94t74.5 -60q-17 -37 -21.5 -47.5t-16 -32.5t-23 -36.5t-28.5 -34.5q-43 -49 -88 -49q-24 0 -53.5 15t-50.5 15h-21
q-34 0 -67 -15.5t-56 -15.5q-37 0 -64 22.5t-52 60.5q-87 134 -87 256q0 96 52 163t131 67q36 0 81 -15t62 -15t57.5 16t77.5 16q46 0 85.5 -20t61.5 -53z" />
    <glyph glyph-name="fi" unicode="&#xfb01;" horiz-adv-x="588" 
d="M319 735v-131q-24 3 -44 3q-27 0 -35 -12.5t-8 -48.5v-22h81v-117h-81v-407h-166v407h-59v117h59v83q0 65 42 100t125 35q37 0 86 -7zM367 730h166v-141h-166v141zM367 524h166v-524h-166v524z" />
    <glyph glyph-name="fl" unicode="&#xfb02;" horiz-adv-x="594" 
d="M319 735v-131q-24 3 -44 3q-27 0 -35 -12.5t-8 -48.5v-22h81v-117h-81v-407h-166v407h-59v117h59v83q0 65 42 100t125 35q37 0 86 -7zM370 730h169v-730h-169v730z" />
    <glyph glyph-name="Ecedilla" horiz-adv-x="604" 
d="M302 0h-235v730h492v-154h-305v-123h223v-150h-223v-139h319v-164h-209v-38h2q61 0 90.5 -24.5t29.5 -78.5q0 -101 -135 -101q-55 0 -136 22v80q80 -24 128 -24q23 0 32 7.5t9 25.5q0 22 -50 22q-21 0 -32 -1v110z" />
    <glyph glyph-name="ecedilla" horiz-adv-x="521" 
d="M272 123q26 0 44.5 12.5t38.5 41.5l128 -74q-55 -104 -200 -113v-28h2q61 0 90.5 -24.5t29.5 -78.5q0 -101 -135 -101q-55 0 -136 22v80q80 -24 128 -24q23 0 32 7.5t9 25.5q0 22 -50 22q-21 0 -32 -1v102q-90 14 -142 85t-52 185q0 127 63.5 200t170.5 73
q114 0 174.5 -72.5t60.5 -205.5v-35h-298q4 -99 74 -99zM329 330v10q0 31 -15.5 51t-47.5 20q-28 0 -47 -22.5t-19 -58.5h129z" />
    </font>
</defs>
</svg>
